<svg width="130" height="79" viewBox="0 0 130 79" fill="none" xmlns="http://www.w3.org/2000/svg">
<path d="M53.2335 63.9395L53.9783 78.8006H46.7395L41.3711 63.5146L53.2335 63.9395ZM94.7685 64.0305L94.6747 65.2388L99.6818 78.8006H106.424L104.863 63.2112C101.518 63.6734 98.1496 63.9469 94.774 64.0305H94.7685ZM103.814 18.7657C105.02 18.7503 106.223 18.647 107.414 18.4568C121.539 16.3546 117.481 4.78465 117.481 4.78465C117.481 4.78465 106.347 7.26748 102.907 11.2455C102.912 11.2455 95.1492 18.7657 103.82 18.7657H103.814ZM126.394 11.778C126.394 11.778 124.516 11.778 122.002 12.0042C121.412 14.4175 120.14 16.6103 118.339 18.3216C119.111 19.5689 119.797 20.8676 120.391 22.2086C127.357 19.6071 126.403 11.778 126.403 11.778H126.394ZM129.65 39.4146V50.8605C129.65 50.8605 114.987 59.6607 92.545 59.6607C91.9408 59.6607 91.3201 59.6194 90.7049 59.6056L89.1932 78.8006H83.9516L77.2066 60.3559L32.3529 58.7366L29.7597 78.8006H23.5168C23.5168 78.8006 10.2336 50.7777 17.1221 28.5757C15.591 27.5163 13.9827 26.3218 12.5068 25.0721C11.0916 25.8032 9.67636 26.206 8.36873 26.1342C4.02102 25.8998 0.542297 22.6224 0.15332 22.2472L3.23203 19.0858C3.94929 19.7754 6.32454 21.6044 8.60598 21.7258C8.76294 21.7326 8.92018 21.7224 9.07496 21.6955C8.60266 21.1378 8.17903 20.5407 7.80872 19.9106C6.25005 17.1988 5.87763 14.3049 6.74938 11.9683C7.12677 10.9979 7.71814 10.1251 8.47948 9.41491C9.24082 8.70468 10.1525 8.17528 11.1467 7.86612C14.2613 6.81505 18.5539 6.94195 20.7332 9.21788C21.5443 10.0648 22.7305 11.9324 21.5608 14.9284C20.5705 17.4912 18.5677 20.2637 16.22 22.41C17.0117 23.0445 17.8587 23.6818 18.7277 24.3052C21.3374 18.5533 25.5803 13.3863 32.1129 9.47444C42.4354 3.25056 54.2671 -0.0232005 66.3208 0.00933439C77.915 0.0415204 89.3275 2.89322 99.5742 8.31854C98.7971 9.11456 98.0806 9.96754 97.4306 10.8703C95.334 13.8139 94.763 16.5229 95.734 18.923C96.5203 20.8541 98.5562 23.1769 103.8 23.1769C105.224 23.162 106.645 23.0422 108.052 22.8183C110.348 22.5076 112.582 21.8393 114.673 20.8375C119.017 27.9329 119.423 37.0228 122.397 37.6656C125.925 38.416 129.65 39.4146 129.65 39.4146ZM17.4559 13.3394C17.5745 13.0304 17.7456 12.4814 17.5442 12.2718C17.18 11.8911 16.2172 11.6483 15.0834 11.6483C14.2256 11.6434 13.3725 11.7756 12.5564 12.04C11.693 12.3297 11.144 12.8152 10.8764 13.5242C10.4736 14.6139 10.7495 16.1781 11.635 17.7147C12.0117 18.3356 12.4548 18.9138 12.9565 19.4389C14.7937 17.8333 16.5952 15.5657 17.4559 13.3394ZM108.808 35.8366C108.808 35.3428 108.661 34.8601 108.387 34.4495C108.112 34.039 107.723 33.719 107.266 33.53C106.81 33.341 106.308 33.2916 105.824 33.3879C105.34 33.4843 104.895 33.7221 104.546 34.0712C104.196 34.4204 103.959 34.8652 103.862 35.3495C103.766 35.8338 103.815 36.3358 104.004 36.792C104.193 37.2482 104.513 37.6381 104.924 37.9125C105.334 38.1868 105.817 38.3332 106.311 38.3332C106.973 38.3332 107.608 38.0702 108.076 37.602C108.544 37.1338 108.808 36.4987 108.808 35.8366Z" fill="#D59C64"/>
</svg>
