<svg width="134" height="130" viewBox="0 0 134 130" fill="none" xmlns="http://www.w3.org/2000/svg">
<path d="M63.7634 0.038255C62.5524 0.038255 62.3706 0.240334 62.1371 0.927404C61.9037 1.61418 61.9295 3.3605 63.3191 5.89856C65.8656 10.5507 72.727 17.4494 86.1948 24.6765C88.2737 22.5016 90.7318 20.9199 93.3388 19.817C85.9302 15.7243 80.5307 11.2163 76.2152 7.5591C70.7111 2.89528 67.1068 0.0379639 63.7631 0.0379639L63.7634 0.038255ZM44.4934 15.9313C43.3842 15.9333 43.1327 16.1825 43.0193 16.3253C42.9059 16.4677 42.7285 16.8725 42.8782 17.8154C43.1777 19.7007 44.9601 23.0535 48.112 26.2309C54.4165 32.5855 65.7882 38.5264 79.9626 36.3262C80.5819 36.2302 81.3364 36.1471 82.2439 36.6734C83.1511 37.1996 83.6192 38.4063 83.6308 39.1041C83.6529 40.5018 83.1962 41.1028 82.8394 41.8797C82.1264 43.4339 81.5746 45.2692 81.5673 45.2148V45.2157C82.143 49.5771 85.7467 52.8569 90.9868 55.2847C96.2272 57.7135 102.835 59.0658 108.105 59.5697C111.755 59.9186 116.023 59.859 119.998 59.1661C119.545 58.3767 119.22 57.5448 119.035 56.69C118.523 54.3185 119.066 51.9244 120.225 49.9074C122.084 46.6741 125.492 44.1837 129.634 43.2693C128.285 40.9906 126.6 38.5232 124.684 36.1189C118.892 28.8522 110.893 22.4662 104.919 22.3414C98.9685 22.2173 92.0943 24.102 88.2388 29.3901C87.5875 30.2827 86.6222 30.595 85.9075 30.6869C85.1931 30.7793 84.5633 30.7159 83.8954 30.6043C82.5603 30.3816 81.075 29.9143 79.3558 29.288C75.9175 28.0354 71.6142 26.1216 67.1068 24.12C62.5995 22.1187 57.899 20.0319 53.8062 18.4676C49.7135 16.9033 46.0877 15.9278 44.494 15.931L44.4934 15.9313ZM109.747 33.9338C110.957 33.9691 112.105 34.4746 112.948 35.3429C113.792 36.2111 114.263 37.3739 114.263 38.5842C114.263 39.8181 113.773 41.0014 112.901 41.8738C112.028 42.7463 110.845 43.2364 109.611 43.2364C108.377 43.2364 107.194 42.7463 106.321 41.8738C105.449 41.0014 104.959 39.8181 104.959 38.5842C104.959 37.9618 105.084 37.3458 105.326 36.7725C105.568 36.1992 105.923 35.6803 106.37 35.2467C106.816 34.813 107.345 34.4733 107.925 34.2478C108.505 34.0222 109.125 33.9153 109.747 33.9335V33.9338ZM4.88411 47.574C4.65034 47.5758 4.29765 47.6467 3.71612 47.9346H3.71554C2.47922 48.546 1.55315 50.0318 1.1327 52.6813C0.711972 55.3301 0.930333 58.8658 1.68166 62.4305C2.43328 65.9961 3.70362 69.6074 5.20453 72.5007C6.0835 74.195 7.06134 75.5735 7.97549 76.6101C9.41942 71.5808 12.0296 66.7727 16.0287 62.5256C15.1337 61.9495 14.3163 61.261 13.5965 60.4769C11.5466 58.2331 10.2225 55.5708 9.04666 53.2436C7.87053 50.9166 6.7729 48.9246 5.95295 48.1247C5.54356 47.7246 5.30746 47.6264 5.08358 47.5897C5.01798 47.5786 4.95152 47.5732 4.88498 47.5737L4.88411 47.574ZM132.13 48.173C128.741 48.5016 125.94 50.4671 124.762 52.5158C124.127 53.6198 123.949 54.6581 124.15 55.5848C124.298 56.271 124.647 56.9796 125.431 57.7045C128.878 56.3774 131.583 54.384 133.033 51.6165C132.95 51.7386 133.086 51.2327 132.887 50.3999C132.743 49.7981 132.481 49.0304 132.131 48.1727L132.13 48.173ZM74.4151 50.4188C73.7076 50.4176 73.0001 50.4209 72.2926 50.4287C51.4924 50.6631 37.2302 54.3453 27.9154 59.7875C17.2697 66.0077 12.8783 74.3523 11.9688 83.4671C11.0593 92.5813 13.8878 102.516 18.3656 110.962C22.6805 119.099 28.5696 125.798 33.4765 129.053H84.0876C84.0487 128.497 83.8928 128.019 83.6509 127.544C83.1749 126.611 82.2209 125.637 80.734 124.728C77.7601 122.909 72.8485 121.516 67.7044 120.53C62.5599 119.543 57.1861 118.903 52.9845 118.204C50.8832 117.855 49.0904 117.512 47.5961 117.004C46.8489 116.75 46.1656 116.477 45.4698 115.959C44.7743 115.441 43.925 114.394 43.925 113.061C43.925 112.302 44.2943 111.612 44.6155 111.252C44.9374 110.893 45.2058 110.746 45.4151 110.634C45.8344 110.412 46.079 110.358 46.3238 110.298C46.814 110.18 47.2653 110.122 47.8139 110.062C48.9118 109.942 50.3476 109.844 52.0939 109.717C55.586 109.462 60.2664 109.104 65.1689 108.354C74.974 106.853 85.3426 103.475 88.766 97.7592C90.6277 94.651 90.4204 91.7492 88.6032 88.7002C86.785 85.651 83.1316 82.6733 78.2171 80.7403C68.3885 76.8741 53.7728 77.1163 39.6272 87.2738L36.5742 83.0208C46.2645 76.0629 56.3431 73.2338 65.3597 73.1989C70.7702 73.1779 75.7957 74.1671 80.1251 75.8701C85.8979 78.1409 90.4954 81.665 93.0914 86.0194C95.6879 90.3739 96.056 95.7707 93.2551 100.448C88.126 109.011 76.2525 111.948 65.9595 113.524C64.2449 113.786 62.6695 113.951 61.0619 114.132C63.511 114.496 66.0973 114.89 68.6857 115.386C74.0776 116.42 79.4128 117.785 83.4686 120.265C85.4967 121.506 87.2456 123.073 88.3118 125.163C88.9102 126.338 89.2434 127.662 89.2917 129.052H127.283C127.885 128.54 128.281 128.106 128.4 127.871C128.557 127.561 128.534 127.528 128.473 127.271C128.35 126.757 127.407 125.479 126.211 124.037C125.476 123.151 123.008 121.735 119.914 120.956C116.82 120.178 113.126 119.895 109.955 120.311L109.273 120.393L108.629 120.138C106.69 119.349 105.179 117.332 105.067 115.395C104.954 113.459 105.616 111.804 106.439 110.026C108.083 106.47 110.743 102.359 112.89 97.6042C115.037 92.8497 116.643 87.5671 116.298 81.9488C115.962 76.5028 113.836 70.6294 108.203 64.2472C108.022 64.2321 107.84 64.2181 107.662 64.2007H107.661C101.99 63.6587 95.0063 62.2758 89.0294 59.506C84.6002 57.4532 80.5784 54.5145 78.4413 50.4709C77.0771 50.4418 75.7279 50.4209 74.4143 50.4185L74.4151 50.4188Z" fill="#D59C64"/>
<path d="M119.035 56.69C119.22 57.5448 119.545 58.3767 119.998 59.1661C120.15 59.3854 121.449 59.4002 125.431 57.7045C124.647 56.9796 124.298 56.271 124.15 55.5848C123.949 54.6581 124.127 53.6198 124.762 52.5158C125.94 50.4671 128.741 48.5016 132.13 48.173C131.525 45.2026 130.214 43.6662 129.634 43.2693C125.492 44.1837 122.084 46.6741 120.225 49.9074C119.066 51.9244 118.523 54.3185 119.035 56.69Z" fill="#D59C64"/>
</svg>
