<svg width="105" height="191" viewBox="0 0 105 191" fill="none" xmlns="http://www.w3.org/2000/svg">
<mask id="path-1-inside-1_13_47" fill="white">
<path d="M4.84504 27.4158H103.873V47.2687H95.9554V35.097H12.408V47.2687H4.84504V27.4158ZM21.0346 15.7168L27.7703 13.2352C30.1338 18.3166 32.8517 25.0524 33.7971 29.1884L26.825 32.2609C25.8796 28.0067 23.398 21.0346 21.0346 15.7168ZM48.0959 14.6533L54.9498 12.408C57.0769 17.7257 59.4404 24.6979 60.5039 28.8339L53.2954 31.5518C52.3501 27.2977 49.9866 19.971 48.0959 14.6533ZM94.0647 0L96.9008 7.20847C74.8027 10.7536 38.7603 12.8807 9.69008 13.2352C9.57191 11.1081 8.62653 8.03568 7.79933 6.14493C37.1059 5.55407 73.2664 3.30881 94.0647 0ZM81.6566 10.6354L89.5741 13.2352C85.7926 19.6165 81.4203 26.7068 77.6388 31.4337L71.3757 29.0702C74.8027 24.107 79.2932 16.1895 81.6566 10.6354ZM38.6421 68.0669C50.4593 84.6109 75.9844 94.5373 104.818 97.6098C103.046 99.6187 101.037 103.164 100.091 105.527C71.0212 101.509 45.6143 90.4013 32.1427 71.1394L38.6421 68.0669ZM34.6243 65.4671H85.4381V73.2664H34.6243V65.4671ZM82.602 65.4671H84.3746L85.7926 65.2308L90.6377 68.6577C79.175 89.8105 54.4771 100.446 29.0702 105.409C28.4794 103.282 26.3523 99.6187 25.0524 97.9643C49.6321 94.0647 73.1483 84.6109 82.602 66.8852V65.4671ZM13.3534 48.3322H95.01V56.0134H13.3534V48.3322ZM38.0513 38.0513L46.4415 39.1148C40.5329 71.1394 28.243 92.6466 5.55407 106C4.6087 104.346 1.6544 100.682 0 99.0279C21.6254 87.5652 32.9699 67.2397 38.0513 38.0513Z"/>
<path d="M51.9782 180.471L51.6022 180.847L51.1886 180.471C33.3275 164.265 21.5204 153.548 21.5204 142.681C21.5204 135.161 27.1608 129.52 34.6812 129.52C40.4719 129.52 46.1123 133.281 48.1052 138.395H55.0992C57.0921 133.281 62.7324 129.52 68.5232 129.52C76.0436 129.52 81.6839 135.161 81.6839 142.681C81.6839 153.548 69.8768 164.265 51.9782 180.471ZM68.5232 122C61.9804 122 55.7008 125.046 51.6022 129.821C47.5035 125.046 41.224 122 34.6812 122C23.0997 122 14 131.062 14 142.681C14 156.857 26.7847 168.476 46.1499 186.037L51.6022 191L57.0545 186.037C76.4196 168.476 89.2044 156.857 89.2044 142.681C89.2044 131.062 80.1046 122 68.5232 122Z"/>
</mask>
<path d="M4.84504 27.4158V-14.5842H-37.155V27.4158H4.84504ZM103.873 27.4158H145.873V-14.5842H103.873V27.4158ZM103.873 47.2687V89.2687H145.873V47.2687H103.873ZM95.9554 47.2687H53.9554V89.2687H95.9554V47.2687ZM95.9554 35.097H137.955V-6.90302H95.9554V35.097ZM12.408 35.097V-6.90302H-29.592V35.097H12.408ZM12.408 47.2687V89.2687H54.408V47.2687H12.408ZM4.84504 47.2687H-37.155V89.2687H4.84504V47.2687ZM21.0346 15.7168L6.51492 -23.6936L-35.554 -8.19447L-17.3455 32.7746L21.0346 15.7168ZM27.7703 13.2352L65.8526 -4.47746L49.5419 -39.5456L13.2507 -26.1752L27.7703 13.2352ZM33.7971 29.1884L50.734 67.622L82.4686 53.6372L74.7412 19.8298L33.7971 29.1884ZM26.825 32.2609L-14.1749 41.372L-3.07234 91.3333L43.7618 70.6945L26.825 32.2609ZM48.0959 14.6533L35.0209 -25.2597L-5.90445 -11.8531L8.52286 28.7237L48.0959 14.6533ZM54.9498 12.408L93.9458 -3.1904L79.3142 -39.7695L41.8749 -27.505L54.9498 12.408ZM60.5039 28.8339L75.3217 68.1332L110.559 54.8469L101.181 18.3742L60.5039 28.8339ZM53.2954 31.5518L12.2956 40.6629L22.8007 87.9361L68.1132 70.8511L53.2954 31.5518ZM94.0647 0L133.148 -15.3772L120.793 -46.7804L87.4658 -41.4784L94.0647 0ZM96.9008 7.20847L103.554 48.6782L155.097 40.4092L135.985 -8.16875L96.9008 7.20847ZM9.69008 13.2352L-32.2453 15.565L-30.0143 55.7225L10.2022 55.2321L9.69008 13.2352ZM7.79933 6.14493L6.95273 -35.8465L-55.8615 -34.5801L-30.6793 22.9793L7.79933 6.14493ZM81.6566 10.6354L94.7594 -29.2684L58.113 -41.3016L43.0101 -5.80984L81.6566 10.6354ZM89.5741 13.2352L125.706 34.6469L152.372 -10.3509L102.677 -26.6686L89.5741 13.2352ZM77.6388 31.4337L62.8104 70.7289L91.3678 81.5053L110.435 57.6708L77.6388 31.4337ZM71.3757 29.0702L36.814 5.20623L6.29711 49.4031L56.5473 68.3655L71.3757 29.0702ZM38.6421 68.0669L72.8189 43.6549L52.4205 15.097L20.6922 30.0959L38.6421 68.0669ZM104.818 97.6098L136.311 125.398L190.082 64.4576L109.268 55.8462L104.818 97.6098ZM100.091 105.527L94.3412 147.132L126.886 151.63L139.087 121.126L100.091 105.527ZM32.1427 71.1394L14.1928 33.1683L-30.7933 54.4344L-2.27496 95.2106L32.1427 71.1394ZM34.6243 65.4671V23.4671H-7.3757V65.4671H34.6243ZM85.4381 65.4671H127.438V23.4671H85.4381V65.4671ZM85.4381 73.2664V115.266H127.438V73.2664H85.4381ZM34.6243 73.2664H-7.3757V115.266H34.6243V73.2664ZM82.602 65.4671V23.4671H40.602V65.4671H82.602ZM84.3746 65.4671V107.467H87.8507L91.2794 106.896L84.3746 65.4671ZM85.7926 65.2308L110.046 30.9413L95.9358 20.9609L78.8878 23.8022L85.7926 65.2308ZM90.6377 68.6577L127.564 88.6683L145.325 55.8943L114.891 34.3683L90.6377 68.6577ZM29.0702 105.409L-11.3975 116.65L-1.00108 154.077L37.1227 146.63L29.0702 105.409ZM25.0524 97.9643L18.4712 56.4831L-52.1501 67.6875L-7.97297 123.913L25.0524 97.9643ZM82.602 66.8852L119.661 86.6499L124.602 77.3852V66.8852H82.602ZM13.3534 48.3322V6.33221H-28.6466V48.3322H13.3534ZM95.01 48.3322H137.01V6.33221H95.01V48.3322ZM95.01 56.0134V98.0134H137.01V56.0134H95.01ZM13.3534 56.0134H-28.6466V98.0134H13.3534V56.0134ZM38.0513 38.0513L43.3329 -3.6153L3.55117 -8.65804L-3.32638 30.8479L38.0513 38.0513ZM46.4415 39.1148L87.7444 46.7353L95.8069 3.0363L51.7231 -2.55176L46.4415 39.1148ZM5.55407 106L-30.9121 126.838L-9.80574 163.774L26.8572 142.196L5.55407 106ZM0 99.0279L-19.6699 61.9186L-69.8879 88.5369L-29.6985 128.726L0 99.0279ZM51.9782 180.471L23.7879 149.338L23.016 150.037L22.2797 150.773L51.9782 180.471ZM51.6022 180.847L23.3498 211.925L52.9826 238.864L81.3007 210.546L51.6022 180.847ZM51.1886 180.471L79.441 149.394L79.4262 149.381L79.4115 149.367L51.1886 180.471ZM48.1052 138.395L8.97179 153.645L19.3962 180.395H48.1052V138.395ZM55.0992 138.395V180.395H83.8081L94.2326 153.645L55.0992 138.395ZM51.6022 129.821L19.7311 157.175L51.6022 194.309L83.4732 157.175L51.6022 129.821ZM46.1499 186.037L74.4234 154.978L74.3932 154.951L74.363 154.924L46.1499 186.037ZM51.6022 191L23.3286 222.058L51.6022 247.797L79.8757 222.058L51.6022 191ZM57.0545 186.037L28.8414 154.924L28.8111 154.951L28.7809 154.978L57.0545 186.037ZM4.84504 69.4158H103.873V-14.5842H4.84504V69.4158ZM61.8729 27.4158V47.2687H145.873V27.4158H61.8729ZM103.873 5.26867H95.9554V89.2687H103.873V5.26867ZM137.955 47.2687V35.097H53.9554V47.2687H137.955ZM95.9554 -6.90302H12.408V77.097H95.9554V-6.90302ZM-29.592 35.097V47.2687H54.408V35.097H-29.592ZM12.408 5.26867H4.84504V89.2687H12.408V5.26867ZM46.845 47.2687V27.4158H-37.155V47.2687H46.845ZM35.5542 55.1272L42.29 52.6456L13.2507 -26.1752L6.51492 -23.6936L35.5542 55.1272ZM-10.3119 30.9479C-9.48754 32.7204 -8.59442 34.8029 -7.87449 36.6708C-7.51968 37.5914 -7.26873 38.3 -7.11238 38.7758C-6.92954 39.3323 -6.99688 39.2036 -7.14696 38.547L74.7412 19.8298C72.7484 11.1112 68.4017 1.00296 65.8526 -4.47746L-10.3119 30.9479ZM16.8602 -9.24521L9.8881 -6.17274L43.7618 70.6945L50.734 67.622L16.8602 -9.24521ZM67.8248 23.1498C66.0551 15.1862 62.4165 5.41328 59.4146 -1.34097L-17.3455 32.7746C-16.6646 34.3068 -15.8606 36.3291 -15.1587 38.3245C-14.8177 39.2941 -14.5491 40.1202 -14.3581 40.7537C-14.1501 41.4435 -14.1186 41.6251 -14.1749 41.372L67.8248 23.1498ZM61.1708 54.5663L68.0248 52.321L41.8749 -27.505L35.0209 -25.2597L61.1708 54.5663ZM15.9538 28.0065C17.6401 32.222 19.3441 37.4149 19.8272 39.2936L101.181 18.3742C99.5366 11.9809 96.5138 3.22947 93.9458 -3.1904L15.9538 28.0065ZM45.6861 -10.4654L38.4777 -7.74745L68.1132 70.8511L75.3217 68.1332L45.6861 -10.4654ZM94.2953 22.4407C92.7529 15.5 89.6372 6.11875 87.6689 0.582886L8.52286 28.7237C9.29953 30.9081 10.1881 33.5501 10.9585 36.0178C11.341 37.2429 11.663 38.3249 11.9129 39.2153C12.0365 39.6554 12.1311 40.0084 12.2001 40.2769C12.2712 40.5535 12.2983 40.6751 12.2956 40.6629L94.2953 22.4407ZM54.9809 15.3772L57.817 22.5857L135.985 -8.16875L133.148 -15.3772L54.9809 15.3772ZM90.2479 -34.2613C71.1218 -31.1929 37.4363 -29.1063 9.17793 -28.7617L10.2022 55.2321C40.0843 54.8677 78.4835 52.7002 103.554 48.6782L90.2479 -34.2613ZM51.6254 10.9055C51.1216 1.83636 48.1502 -6.41001 46.278 -10.6894L-30.6793 22.9793C-31.133 21.9423 -31.3265 21.3107 -31.4437 20.891C-31.5215 20.6119 -31.652 20.1118 -31.7884 19.4C-31.9103 18.7641 -32.1422 17.4199 -32.2453 15.565L51.6254 10.9055ZM8.64593 48.1364C38.5551 47.5334 76.9931 45.2441 100.663 41.4784L87.4658 -41.4784C69.5398 -38.6265 35.6567 -36.4252 6.95273 -35.8465L8.64593 48.1364ZM68.5539 50.5393L76.4713 53.1391L102.677 -26.6686L94.7594 -29.2684L68.5539 50.5393ZM53.4419 -8.17647C49.5296 -1.57446 46.5334 3.08261 44.8423 5.19651L110.435 57.6708C116.307 50.331 122.056 40.8075 125.706 34.6469L53.4419 -8.17647ZM92.4672 -7.8616L86.2041 -10.225L56.5473 68.3655L62.8104 70.7289L92.4672 -7.8616ZM105.937 52.9342C110.721 46.0065 116.671 35.6172 120.303 27.0807L43.0101 -5.80984C41.9158 -3.23814 38.8846 2.20749 36.814 5.20623L105.937 52.9342ZM4.46533 92.4789C27.0071 124.037 68.0333 135.928 100.368 139.373L109.268 55.8462C98.0556 54.6514 88.7326 52.2296 81.9535 49.3119C78.6249 47.8792 76.288 46.4897 74.7561 45.3658C73.2315 44.2474 72.776 43.5948 72.8189 43.6549L4.46533 92.4789ZM73.3251 69.8217C67.6485 76.2552 63.3682 84.2468 61.0954 89.929L139.087 121.126C138.796 121.854 138.584 122.281 138.526 122.398C138.449 122.551 138.398 122.642 138.355 122.714C138.318 122.778 138.199 122.977 137.969 123.31C137.777 123.586 137.231 124.356 136.311 125.398L73.3251 69.8217ZM105.842 63.9228C81.9516 60.6209 70.3603 52.5014 66.5604 47.0681L-2.27496 95.2106C20.8682 128.301 60.0907 142.398 94.3412 147.132L105.842 63.9228ZM50.0926 109.11L56.5921 106.038L20.6922 30.0959L14.1928 33.1683L50.0926 109.11ZM34.6243 107.467H85.4381V23.4671H34.6243V107.467ZM43.4381 65.4671V73.2664H127.438V65.4671H43.4381ZM85.4381 31.2664H34.6243V115.266H85.4381V31.2664ZM76.6243 73.2664V65.4671H-7.3757V73.2664H76.6243ZM82.602 107.467H84.3746V23.4671H82.602V107.467ZM91.2794 106.896L92.6975 106.659L78.8878 23.8022L77.4698 24.0386L91.2794 106.896ZM61.5391 99.5202L66.3842 102.947L114.891 34.3683L110.046 30.9413L61.5391 99.5202ZM53.711 48.6472C51.5459 52.6426 43.176 59.8597 21.0178 64.1883L37.1227 146.63C65.7783 141.032 106.804 126.978 127.564 88.6683L53.711 48.6472ZM69.538 94.1681C67.8903 88.2363 65.259 83.3126 64.0786 81.1789C62.654 78.6036 60.579 75.1992 58.0778 72.0158L-7.97297 123.913C-8.72676 122.953 -9.13124 122.32 -9.19096 122.227C-9.30897 122.044 -9.37355 121.932 -9.42422 121.84C-9.46367 121.769 -9.63139 121.464 -9.8811 120.913C-10.0117 120.625 -10.2157 120.157 -10.4541 119.533C-10.6808 118.939 -11.0366 117.95 -11.3975 116.65L69.538 94.1681ZM31.6335 139.446C46.7232 137.051 63.1868 132.723 78.2824 125.175C93.266 117.684 109.521 105.663 119.661 86.6499L45.5432 47.1205C46.2296 45.8334 45.9993 47.4022 40.7165 50.0436C35.5456 52.629 27.9613 54.9775 18.4712 56.4831L31.6335 139.446ZM124.602 66.8852V65.4671H40.602V66.8852H124.602ZM13.3534 90.3322H95.01V6.33221H13.3534V90.3322ZM53.01 48.3322V56.0134H137.01V48.3322H53.01ZM95.01 14.0134H13.3534V98.0134H95.01V14.0134ZM55.3534 56.0134V48.3322H-28.6466V56.0134H55.3534ZM32.7696 79.7179L41.1598 80.7814L51.7231 -2.55176L43.3329 -3.6153L32.7696 79.7179ZM5.13858 31.4944C0.610324 56.0375 -6.93697 64.6174 -15.749 69.8036L26.8572 142.196C63.423 120.676 80.4554 86.2412 87.7444 46.7353L5.13858 31.4944ZM42.0203 85.1622C39.7971 81.2716 37.0258 77.7598 35.8394 76.2767C34.3348 74.396 32.089 71.7199 29.6985 69.3294L-29.6985 128.726C-29.9967 128.428 -30.1782 128.232 -30.2245 128.182C-30.2824 128.119 -30.2858 128.113 -30.2355 128.171C-30.1261 128.296 -29.948 128.508 -29.7536 128.751C-29.5491 129.007 -29.4623 129.127 -29.5009 129.074C-29.5239 129.042 -29.6448 128.875 -29.8343 128.591C-29.9326 128.443 -30.0721 128.23 -30.2413 127.96C-30.4068 127.696 -30.6393 127.315 -30.9121 126.838L42.0203 85.1622ZM19.6699 136.137C56.8949 116.406 73.0698 81.7828 79.4289 45.2547L-3.32638 30.8479C-7.13 52.6966 -13.6441 58.7246 -19.6699 61.9186L19.6699 136.137ZM22.2797 150.773L21.9037 151.149L81.3007 210.546L81.6767 210.17L22.2797 150.773ZM79.8546 149.77L79.441 149.394L22.9361 211.549L23.3498 211.925L79.8546 149.77ZM79.4115 149.367C74.8446 145.223 71.1762 141.891 68.0151 138.874C64.842 135.846 62.8432 133.759 61.5785 132.279C60.2572 130.734 60.5539 130.789 61.2483 132.185C62.0633 133.823 63.5204 137.516 63.5204 142.681H-20.4796C-20.4796 163.612 -9.16428 178.8 -2.26533 186.868C5.04126 195.414 14.78 204.148 22.9657 211.576L79.4115 149.367ZM63.5204 142.681C63.5204 149.705 60.7534 157.205 54.9791 162.979C49.2049 168.753 41.7046 171.52 34.6812 171.52V87.5204C3.96479 87.5204 -20.4796 111.965 -20.4796 142.681H63.5204ZM34.6812 171.52C28.6235 171.52 23.5039 169.626 19.6157 167.05C15.7731 164.503 11.5286 160.206 8.97179 153.645L87.2386 123.144C78.6108 101.005 56.8001 87.5204 34.6812 87.5204V171.52ZM48.1052 180.395H55.0992V96.3945H48.1052V180.395ZM94.2326 153.645C91.6758 160.206 87.4312 164.503 83.5887 167.049C79.7005 169.626 74.5808 171.52 68.5232 171.52V87.5204C46.4042 87.5204 24.5936 101.005 15.9658 123.144L94.2326 153.645ZM68.5232 171.52C61.4997 171.52 53.9994 168.753 48.2252 162.979C42.451 157.205 39.6839 149.705 39.6839 142.681H123.684C123.684 111.965 99.2396 87.5204 68.5232 87.5204V171.52ZM39.6839 142.681C39.6839 137.516 41.1414 133.82 41.9586 132.178C42.6549 130.779 42.9537 130.722 41.6333 132.265C40.3697 133.742 38.3705 135.827 35.1956 138.853C32.0336 141.866 28.3595 145.198 23.7879 149.338L80.1685 211.605C88.3819 204.168 98.1332 195.436 105.453 186.883C112.364 178.807 123.684 163.617 123.684 142.681H39.6839ZM68.5232 80C49.2836 80 31.5141 88.7385 19.7311 102.467L83.4732 157.175C79.8875 161.353 74.6771 164 68.5232 164V80ZM83.4732 102.467C71.6902 88.7385 53.9207 80 34.6812 80V164C28.5272 164 23.3168 161.353 19.7311 157.175L83.4732 102.467ZM34.6812 80C-0.0461889 80 -28 107.816 -28 142.681H56C56 154.308 46.2456 164 34.6812 164V80ZM-28 142.681C-28 163.577 -18.2082 179.268 -9.70608 189.67C-1.66563 199.507 9.07999 209.118 17.9367 217.15L74.363 154.924C69.4058 150.428 65.4775 146.859 62.1044 143.608C58.7329 140.358 56.6447 138.115 55.3321 136.51C52.6006 133.168 56 135.961 56 142.681H-28ZM17.8763 217.095L23.3286 222.058L79.8757 159.942L74.4234 154.978L17.8763 217.095ZM79.8757 222.058L85.3281 217.095L28.7809 154.978L23.3286 159.942L79.8757 222.058ZM85.2676 217.15C94.1244 209.118 104.87 199.507 112.91 189.67C121.413 179.268 131.204 163.577 131.204 142.681H47.2044C47.2044 135.961 50.6038 133.168 47.8723 136.51C46.5596 138.115 44.4715 140.358 41.1 143.608C37.7269 146.859 33.7986 150.428 28.8414 154.924L85.2676 217.15ZM131.204 142.681C131.204 107.816 103.251 80 68.5232 80V164C56.9587 164 47.2044 154.308 47.2044 142.681H131.204Z" fill="#D59C64" mask="url(#path-1-inside-1_13_47)"/>
</svg>
