<svg width="120" height="130" viewBox="0 0 120 130" fill="none" xmlns="http://www.w3.org/2000/svg">
<path d="M105.094 0.233643C103.577 4.02792 100.241 7.50784 97.7591 8.74595L89.5142 4.89376C87.9976 9.00791 88.6043 11.6137 90.4793 13.9824C87.8873 15.3253 84.8265 15.408 81.4624 14.6083C81.0488 18.9541 84.4681 22.7125 88.687 22.7125C90.3415 20.5562 92.8783 18.1131 96.1873 16.4393C100.241 14.3932 105.701 13.8886 110.967 17.2003C117.613 16.7702 119.626 9.62558 119.626 5.02061C114.028 7.2514 112.484 9.21472 106.859 9.9096C109.754 7.09147 107.603 2.58576 105.094 0.233643ZM8.48878 18.9899C15.876 23.5122 23.0317 26.6281 24.6586 32.8049C14.9716 29.6889 6.4262 34.9281 0.616211 44.1105C8.21855 41.546 13.0276 39.7812 21.1842 40.5533C13.7914 43.7796 6.20284 47.4746 6.71297 53.541C11.9659 50.5078 13.193 48.6603 21.2393 48.6879C13.4605 53.348 9.19194 56.4364 10.8767 67.025C13.5101 62.5855 19.9985 58.3114 24.7413 57.5393C17.9028 65.8117 16.6702 70.9406 19.5573 79.2958C22.0114 75.5456 24.5207 69.0656 29.5117 66.2805C26.9748 71.7955 27.9951 79.9576 30.3941 83.818C32.9861 79.02 34.9164 73.9463 40.0452 69.9755C45.6705 79.1027 49.8894 88.5333 63.6767 96.0612C65.8276 98.3774 67.096 101.135 67.3166 104.995H82.4551L87.2807 96.1163C101.647 90.6014 109.726 82.0257 113.89 71.9885C111.602 70.7476 110.195 68.5692 109.23 66.5011C105.563 70.141 103.495 73.6154 101.04 77.917C98.6414 74.4702 96.7664 70.3064 96.3252 66.5287C93.0989 69.2034 91.1687 71.9333 88.7697 75.2699C86.9222 71.2991 85.4056 66.6666 85.3504 62.8888C80.1113 64.6812 78.6222 66.9423 75.1478 70.9406C73.4106 65.0672 71.6458 57.9254 73.3279 53.6789C52.3987 54.7267 54.8528 28.1999 46.1944 21.1242C46.3598 25.1115 43.9333 32.1982 42.5821 32.7221C37.0672 19.8889 18.0407 18.9927 8.48878 18.9899ZM103.081 19.3401C101.371 19.3401 99.8272 19.8585 98.283 20.6224C95.167 22.4368 92.6026 24.9736 90.7827 28.0344C90.2863 32.1431 90.9481 36.2241 90.8102 40.3052C90.6448 45.958 86.1777 51.8865 81.1867 52.8241C80.6076 52.9068 80.0561 53.0171 79.5046 53.0998C76.5265 55.3058 77.2435 58.5045 77.9329 61.3446C82.1518 58.532 86.0398 57.9254 90.6999 57.1533C90.1209 59.9935 89.9278 63.137 90.369 65.729C93.871 62.1995 96.987 60.1038 100.958 57.236C100.765 60.931 100.627 65.15 101.454 68.3486C104.542 64.2124 107.217 61.9237 111.133 59.1111C112.346 61.6204 113.89 66.2254 115.49 67.5214C116.207 65.1775 116.703 62.751 117.089 60.2968C117.613 56.4639 116.013 52.8516 114.221 49.1842C110.664 49.0739 107.162 47.0885 104.542 44.2759C101.178 40.7188 99.2205 35.1487 101.73 29.7992L102.364 28.4205C105.37 28.5032 108.651 28.6135 111.215 29.3856C114.662 29.8544 117.944 32.6946 119.295 32.1982C118.412 28.5859 115.848 22.6574 109.754 23.6225C110.057 20.854 104.984 19.4063 103.081 19.3401ZM102.612 21.3035C103.743 21.3035 104.653 22.1886 104.653 23.2916C104.653 24.3946 103.743 25.277 102.612 25.277C101.482 25.277 100.544 24.3946 100.544 23.2916C100.544 22.1886 101.482 21.2897 102.612 21.3035ZM105.48 33.246C104.735 36.1414 105.894 38.8989 107.934 41.0773C109.754 43.0075 112.208 44.138 114.138 44.4138C114.083 39.8364 113.614 36.9962 112.622 35.6175C110.774 33.5218 107.879 33.3839 105.48 33.246ZM68.4196 109.711L69.3296 114.784C66.4894 115.446 63.4837 115.805 59.4302 115.281L58.8236 119.913C62.4359 120.41 65.4967 120.244 68.2266 119.803L63.0977 124.904L63.3459 129.647L70.9289 123.663L71.9216 129.73L76.5541 128.93L74.9824 119.362L78.7325 119.141L81.0764 129.399L85.6538 128.379L84.6335 123.939C89.5969 126.311 94.6707 126.807 98.9172 127.441L94.7534 122.505C89.1558 121.65 88.3837 121.43 83.4478 117.735L81.9312 109.711H77.1883L78.0707 114.481L74.1 114.702L73.19 109.711H68.4196Z" fill="#D59C64"/>
</svg>
