<svg width="253" height="253" viewBox="0 0 253 253" fill="none" xmlns="http://www.w3.org/2000/svg">
<path d="M155.693 68C154.333 71.4026 151.341 74.5233 149.115 75.6336L141.722 72.1791C140.362 75.8686 140.906 78.2054 142.587 80.3295C140.263 81.5338 137.518 81.608 134.501 80.8909C134.13 84.7881 137.196 88.1585 140.98 88.1585C142.464 86.2248 144.739 84.0339 147.706 82.5328C151.341 80.698 156.237 80.2455 160.96 83.2153C166.92 82.8296 168.725 76.4225 168.725 72.2928C163.705 74.2934 162.32 76.054 157.276 76.6772C159.872 74.1499 157.943 70.1093 155.693 68ZM69.0599 84.8202C75.6847 88.8757 82.1017 91.67 83.5606 97.2091C74.8736 94.4148 67.2103 99.1132 62 107.348C68.8176 105.048 73.1302 103.465 80.4449 104.158C73.8152 107.051 67.01 110.365 67.4674 115.805C72.1782 113.085 73.2786 111.428 80.4943 111.453C73.5185 115.632 69.6905 118.401 71.2014 127.897C73.563 123.916 79.3815 120.083 83.6348 119.39C77.5022 126.809 76.3968 131.408 78.9859 138.901C81.1867 135.538 83.437 129.727 87.9128 127.229C85.6378 132.175 86.5528 139.495 88.7041 142.957C91.0286 138.654 92.7596 134.104 97.359 130.543C102.404 138.728 106.187 147.185 118.551 153.936C120.48 156.013 121.618 158.486 121.815 161.948H135.391L139.719 153.985C152.602 149.04 159.848 141.349 163.582 132.348C161.529 131.235 160.268 129.282 159.402 127.427C156.114 130.691 154.259 133.807 152.058 137.665C149.907 134.574 148.225 130.84 147.83 127.452C144.936 129.851 143.205 132.299 141.054 135.291C139.397 131.73 138.037 127.576 137.988 124.188C133.289 125.795 131.954 127.823 128.838 131.408C127.28 126.141 125.698 119.737 127.206 115.928C108.437 116.868 110.638 93.0795 102.873 86.7342C103.022 90.3099 100.846 96.6651 99.6341 97.1349C94.6884 85.6264 77.6258 84.8227 69.0599 84.8202ZM153.888 85.1343C152.355 85.1343 150.97 85.5992 149.585 86.2841C146.791 87.9113 144.491 90.1863 142.859 92.9311C142.414 96.6156 143.008 100.275 142.884 103.935C142.736 109.005 138.73 114.321 134.254 115.162C133.734 115.236 133.24 115.335 132.745 115.409C130.075 117.387 130.718 120.256 131.336 122.803C135.119 120.281 138.606 119.737 142.785 119.044C142.266 121.591 142.093 124.41 142.488 126.735C145.629 123.57 148.423 121.69 151.984 119.118C151.811 122.432 151.687 126.215 152.429 129.084C155.199 125.375 157.597 123.322 161.109 120.8C162.197 123.05 163.582 127.18 165.016 128.342C165.659 126.24 166.104 124.064 166.45 121.863C166.92 118.426 165.486 115.187 163.878 111.898C160.688 111.799 157.548 110.018 155.199 107.496C152.182 104.306 150.426 99.311 152.676 94.5137L153.245 93.2773C155.94 93.3515 158.883 93.4504 161.183 94.1428C164.274 94.5632 167.217 97.1102 168.428 96.6651C167.637 93.4257 165.337 88.1091 159.872 88.9746C160.144 86.4918 155.594 85.1936 153.888 85.1343ZM153.468 86.8949C154.482 86.8949 155.298 87.6887 155.298 88.6778C155.298 89.667 154.482 90.4583 153.468 90.4583C152.454 90.4583 151.613 89.667 151.613 88.6778C151.613 87.6887 152.454 86.8826 153.468 86.8949ZM156.039 97.6048C155.372 100.201 156.41 102.674 158.24 104.628C159.872 106.359 162.073 107.372 163.804 107.62C163.755 103.515 163.334 100.968 162.444 99.7314C160.787 97.8521 158.191 97.7284 156.039 97.6048ZM122.805 166.176L123.621 170.726C121.074 171.32 118.378 171.641 114.743 171.172L114.199 175.326C117.438 175.771 120.183 175.623 122.631 175.227L118.032 179.802L118.254 184.055L125.055 178.689L125.945 184.129L130.099 183.412L128.69 174.831L132.053 174.634L134.155 183.832L138.26 182.918L137.345 178.936C141.796 181.063 146.346 181.508 150.154 182.077L146.42 177.65C141.4 176.884 140.708 176.686 136.281 173.372L134.921 166.176H130.668L131.459 170.454L127.899 170.652L127.083 166.176H122.805Z" fill="#D59C64"/>
<circle cx="126.371" cy="126.371" r="91.65" transform="rotate(-21.418 126.371 126.371)" stroke="#D59C64" stroke-width="11.7" stroke-linecap="round" stroke-linejoin="round" stroke-dasharray="52.65 52.65"/>
</svg>
