<svg width="132" height="122" viewBox="0 0 132 122" fill="none" xmlns="http://www.w3.org/2000/svg">
<path d="M104.584 49.45C105.421 49.7692 106.32 49.8946 107.212 49.817C108.104 49.7395 108.967 49.4608 109.736 49.002C110.48 48.5985 111.135 48.0501 111.664 47.3891C112.192 46.7282 112.582 45.9682 112.812 45.1539C113.042 44.3396 113.106 43.4876 113.001 42.6481C112.896 41.8085 112.624 40.9986 112.2 40.2659C110.68 37.6729 108.643 35.4202 106.215 33.6476C103.787 31.8751 101.021 30.6205 98.0884 29.9619C78.3762 24.5858 75.9122 16.9698 77.2562 10.6977C78.8242 3.52964 96.0723 -6.32644 109.96 16.2977L110.378 17.1173C111.833 19.1552 109.213 20.0286 108.34 18.5729L107.757 17.6996C98.0884 3.14351 86.2144 1.10566 80.392 10.6977C79.4534 19.2431 84.5288 22.4834 98.0884 27.0155L106.215 29.9619C109.537 31.8571 111.403 33.7217 114.744 38.0781C115.481 39.3751 116.431 43.474 114.744 46.8117C113.455 49.3628 110.762 51.5891 109.736 52.4752M104.584 49.45C94.0563 45.866 83.5282 38.2499 70.9841 47.434M104.584 49.45C105.72 49.7207 107.642 50.6292 109.736 52.4752M63.8164 60.4261C75.0165 61.0981 70.0884 38.698 70.0884 38.698C68.9684 36.906 64.9364 34.6659 59.7843 41.386C59.2998 39.6814 58.3723 38.1356 57.0963 36.906C55.2267 35.165 52.7896 34.1603 50.2363 34.0779C47.6829 33.9955 45.1861 34.8411 43.2082 36.4579C40.4954 38.2894 38.3874 40.8849 37.1512 43.9156C35.9149 46.9463 35.6062 50.2758 36.2642 53.4821M43.6561 70.0582C42.9841 79.9143 32.008 92.0104 16.5519 96.9384C-0.696251 102.314 1.09577 107.243 3.55979 108.587C4.30934 108.987 5.13179 109.234 5.97834 109.311C6.82488 109.388 7.67827 109.294 8.48782 109.035C12.0719 107.691 20.1359 105.227 24.168 104.106C29.544 102.762 47.2401 98.7304 47.2401 98.7304L54.6322 85.2903L58.4402 77.6743C65.6083 79.0183 72.1043 88.6504 72.1043 88.6504L65.1603 104.106C64.0403 106.347 57.3202 107.691 54.8562 107.691H53.7362C47.9121 108.139 48.5842 117.099 54.4082 117.099H65.8323C66.9831 117.101 68.1127 116.789 69.0995 116.197C70.0862 115.605 70.8928 114.755 71.4323 113.739C74.5684 108.139 80.6164 97.1624 84.6484 91.1144C90.2485 83.0503 72.5524 65.3542 72.5524 65.3542M107.72 83.0502C107.72 83.0502 106.824 95.1463 128.553 99.1784C129.86 104.601 130.388 110.183 130.121 115.754C129.894 116.833 129.302 117.801 128.446 118.495C127.589 119.188 126.519 119.565 125.417 119.563H125.184C124.493 119.577 123.806 119.455 123.163 119.204C122.519 118.952 121.931 118.577 121.433 118.098C120.934 117.62 120.535 117.048 120.258 116.415C119.98 115.782 119.831 115.101 119.817 114.41V108.138C115.337 108.586 101.896 99.1784 101.896 99.1784C101.896 99.1784 95.8592 88.685 99.606 86.5069M83.3043 94.9223L85.5443 106.122C83.6285 107.62 81.2552 108.411 78.8242 108.362H76.6074C71.9495 108.362 70.785 117.099 80.3924 116.203H87.7845C88.8513 116.411 89.9575 116.202 90.8746 115.618C91.7917 115.035 92.4496 114.121 92.7125 113.067C94.686 105.002 95.6649 96.7279 95.6245 88.4264C97.0423 87.7936 98.3675 87.153 99.606 86.5069M109.736 52.4752C111.865 54.3511 114.171 57.1953 116.009 61.3221C116.009 61.3221 121.886 74.4479 100.479 86.0426C100.193 86.1977 99.9021 86.3524 99.606 86.5069M38.7281 62.4422C38.7281 62.4422 32.008 53.9301 40.5201 52.1381C49.0322 50.3461 52.3922 52.1381 52.3922 52.1381C52.3922 52.1381 59.1122 53.9301 52.3922 62.4422C52.3922 62.4422 54.8562 70.0582 46.3441 70.0582C44.5456 70.2764 42.734 69.7712 41.3078 68.6538C39.8817 67.5364 38.9578 65.8983 38.7393 64.0998L38.7281 64.0102C38.5309 63.5375 38.6385 62.9596 38.7281 62.4422Z" stroke="#D59C64" stroke-width="3.49346" stroke-linecap="round" stroke-linejoin="round"/>
</svg>
