<svg width="236" height="236" viewBox="0 0 236 236" fill="none" xmlns="http://www.w3.org/2000/svg">
<path d="M149.208 98.1662C149.992 98.465 150.832 98.5825 151.668 98.5098C152.503 98.4372 153.311 98.1764 154.031 97.7469C154.727 97.3691 155.341 96.8557 155.835 96.237C156.33 95.6183 156.695 94.9068 156.91 94.1446C157.125 93.3823 157.185 92.5847 157.087 91.7988C156.989 91.0129 156.734 90.2546 156.338 89.5688C154.914 87.1414 153.007 85.0326 150.735 83.3733C148.462 81.7139 145.873 80.5395 143.127 79.9229C124.674 74.8903 122.367 67.7607 123.626 61.8892C125.093 55.1791 141.24 45.9525 154.241 67.1316L154.631 67.8988C155.994 69.8065 153.541 70.6241 152.724 69.2615L152.179 68.4439C143.127 54.8176 132.012 52.9099 126.561 61.8892C125.682 69.8888 130.434 72.9221 143.127 77.1647L150.735 79.9229C153.844 81.6971 155.591 83.4426 158.719 87.5207C159.409 88.7349 160.298 92.5719 158.719 95.6965C157.512 98.0846 154.991 100.169 154.031 100.998M149.208 98.1662C139.353 94.8112 129.497 87.6816 117.754 96.279M149.208 98.1662C150.271 98.4196 152.071 99.2701 154.031 100.998M111.044 108.441C121.529 109.07 116.916 88.101 116.916 88.101C115.867 86.4234 112.093 84.3265 107.27 90.6173C106.816 89.0216 105.948 87.5746 104.753 86.4234C103.003 84.7936 100.722 83.8531 98.3316 83.776C95.9413 83.6989 93.604 84.4904 91.7524 86.0041C89.2129 87.7185 87.2395 90.1482 86.0823 92.9853C84.925 95.8225 84.636 98.9393 85.2519 101.941M92.1717 117.458C91.5426 126.685 81.2676 138.008 66.7988 142.621C50.6524 147.654 52.3299 152.267 54.6365 153.525C55.3382 153.901 56.1081 154.131 56.9006 154.203C57.6931 154.275 58.492 154.187 59.2498 153.945C62.6049 152.687 70.1539 150.38 73.9284 149.332C78.961 148.073 95.5268 144.299 95.5268 144.299L102.447 131.717L106.011 124.588C112.722 125.846 118.803 134.863 118.803 134.863L112.302 149.332C111.254 151.428 104.963 152.687 102.656 152.687H101.608C96.1559 153.106 96.785 161.494 102.237 161.494H112.931C114.009 161.496 115.066 161.204 115.99 160.65C116.914 160.096 117.669 159.3 118.174 158.348C121.109 153.106 126.771 142.831 130.546 137.169C135.788 129.62 119.222 113.055 119.222 113.055M152.144 129.62C152.144 129.62 151.305 140.944 171.645 144.718C172.869 149.795 173.364 155.02 173.113 160.236C172.901 161.245 172.347 162.151 171.545 162.801C170.743 163.45 169.742 163.803 168.71 163.8H168.492C167.845 163.814 167.202 163.7 166.6 163.464C165.997 163.229 165.447 162.878 164.98 162.43C164.514 161.982 164.14 161.446 163.88 160.854C163.621 160.262 163.48 159.624 163.467 158.977V153.106C159.274 153.525 146.692 144.718 146.692 144.718C146.692 144.718 141.04 134.895 144.548 132.856M129.287 140.734L131.384 151.219C129.591 152.62 127.369 153.361 125.093 153.316H123.018C118.658 153.316 117.568 161.494 126.561 160.655H133.481C134.48 160.85 135.516 160.654 136.374 160.108C137.233 159.562 137.849 158.707 138.095 157.719C139.942 150.17 140.858 142.424 140.821 134.653C142.148 134.061 143.388 133.461 144.548 132.856M154.031 100.998C156.024 102.754 158.182 105.417 159.903 109.28C159.903 109.28 165.405 121.567 145.365 132.422C145.097 132.567 144.825 132.712 144.548 132.856M87.5584 110.329C87.5584 110.329 81.2676 102.36 89.236 100.683C97.2044 99.0051 100.35 100.683 100.35 100.683C100.35 100.683 106.641 102.36 100.35 110.329C100.35 110.329 102.656 117.458 94.688 117.458C93.0043 117.662 91.3085 117.189 89.9734 116.143C88.6384 115.097 87.7735 113.564 87.5689 111.88L87.5584 111.796C87.3739 111.354 87.4746 110.813 87.5584 110.329Z" stroke="#D59C64" stroke-width="3.27031" stroke-linecap="round" stroke-linejoin="round"/>
<circle cx="117.676" cy="117.676" r="91.65" transform="rotate(13.5872 117.676 117.676)" stroke="#D59C64" stroke-width="11.7" stroke-linecap="round" stroke-linejoin="round" stroke-dasharray="52.65 52.65"/>
</svg>
