<svg width="136" height="104" viewBox="0 0 136 104" fill="none" xmlns="http://www.w3.org/2000/svg">
<path d="M129.375 66.5285L129.882 66.5542L131.448 66.6337L131.954 66.6594L132.243 67.0761L132.352 67.2329C132.466 67.3972 132.585 67.6206 132.688 67.8271C132.819 68.0859 132.939 68.3504 133.047 68.6198L133.048 68.6214C133.177 68.9449 133.293 69.2732 133.397 69.6058L133.397 69.6077C133.62 70.3278 133.796 71.1425 133.902 71.9909C134.009 72.8486 134.048 73.7133 134.02 74.5772C134.01 75.0149 133.978 75.4417 133.943 75.8387L133.942 75.8504L133.942 75.8504C133.898 76.2869 133.827 76.7151 133.722 77.1341L133.722 77.1354C133.528 77.9086 133.238 78.6544 132.857 79.355L132.853 79.3623L132.849 79.3695C132.84 79.385 132.826 79.4124 132.807 79.4472C132.755 79.5444 132.672 79.6995 132.601 79.815L132.495 79.9978L132.487 80.0122L132.478 80.0263L132.361 80.2153L132.359 80.2187L131.951 80.8813C131.95 80.8831 131.949 80.8849 131.948 80.8867C131.823 81.0946 131.746 81.2288 131.714 81.2955L131.712 81.2999L131.612 81.5098L131.468 81.8129L131.172 81.9729L131.037 82.0464L130.693 82.2328L130.311 82.1441L130.256 82.1312C130.255 82.131 130.254 82.1307 130.253 82.1305C130.182 82.1141 130.083 82.088 129.967 82.0449C129.739 81.9657 129.461 81.8392 129.156 81.6399L129.136 81.6273L129.117 81.6137C129.107 81.6063 129.093 81.5966 129.076 81.5848C128.989 81.5239 128.824 81.4082 128.68 81.2823C128.56 81.1792 128.395 81.0346 128.237 80.8646C127.931 80.5511 127.652 80.1875 127.407 79.8093C127.14 79.4032 126.92 78.9686 126.736 78.5224L126.735 78.5196C126.547 78.0577 126.401 77.5796 126.3 77.0912L126.299 77.09C126.199 76.603 126.138 76.0974 126.127 75.5892M129.375 66.5285L127.158 75.5658M129.375 66.5285L129.046 66.9146L128.921 67.0611L128.903 67.0813L128.887 67.1023C128.866 67.1296 128.841 67.1603 128.798 67.2128L128.77 67.2468C128.714 67.3141 128.645 67.3989 128.57 67.4977L128.565 67.5051C128.398 67.7277 128.241 67.9566 128.093 68.1914M129.375 66.5285L129.391 68.1223M126.127 75.5892L127.158 75.5658M126.127 75.5892C126.127 75.5896 126.127 75.5899 126.127 75.5902L127.158 75.5658M126.127 75.5892C126.115 75.111 126.129 74.6325 126.166 74.1556C126.237 73.2251 126.402 72.3042 126.66 71.4073L126.66 71.4065C126.907 70.5465 127.23 69.7592 127.577 69.0908L127.581 69.0828C127.748 68.7668 127.918 68.4654 128.093 68.1914M127.158 75.5658C127.147 75.1216 127.16 74.6771 127.194 74.2341C127.26 73.3735 127.413 72.5217 127.651 71.692C127.88 70.8981 128.176 70.1742 128.492 69.5659C128.653 69.2619 128.809 68.9862 128.964 68.7438M128.093 68.1914C128.092 68.192 128.092 68.1925 128.092 68.1931L128.964 68.7438M128.093 68.1914C128.093 68.1905 128.094 68.1897 128.094 68.1888L128.964 68.7438M128.964 68.7438C129.098 68.5311 129.241 68.3238 129.391 68.1223M127.69 78.1298C127.526 77.7262 127.398 77.3083 127.309 76.8815L127.69 78.1298ZM127.69 78.1298C127.854 78.5277 128.045 78.9029 128.271 79.2454C128.491 79.5852 128.731 79.8962 128.983 80.1526C129.104 80.2836 129.238 80.4017 129.357 80.5038C129.453 80.5883 129.556 80.661 129.648 80.7258C129.673 80.743 129.696 80.7597 129.719 80.7758C129.957 80.9313 130.163 81.0219 130.315 81.0737C130.386 81.1008 130.445 81.1162 130.485 81.1255L130.545 81.1394M127.69 78.1298L130.545 81.1394M130.545 81.1394L130.681 81.066M130.545 81.1394L130.681 81.066M130.681 81.066L130.781 80.856M130.681 81.066L130.781 80.856M130.781 80.856C130.84 80.7317 130.949 80.5461 131.066 80.3511L131.482 79.6747L131.602 79.4824M130.781 80.856L131.602 79.4824M131.602 79.4824L131.716 79.2848C131.771 79.1973 131.816 79.1121 131.863 79.0236C131.891 78.9715 131.919 78.9184 131.951 78.863C132.29 78.2384 132.549 77.5736 132.722 76.8843C132.813 76.5186 132.876 76.1401 132.916 75.7479M131.602 79.4824L132.916 75.7479M132.916 75.7479C132.95 75.3569 132.98 74.9549 132.989 74.5495C133.016 73.7376 132.979 72.9247 132.878 72.1186C132.779 71.3269 132.615 70.5716 132.412 69.9122M132.916 75.7479L132.412 69.9122M132.412 69.9122C132.316 69.6054 132.209 69.3024 132.09 69.004M132.412 69.9122L132.09 69.004M132.09 69.004C131.992 68.7615 131.884 68.5235 131.766 68.2905C131.665 68.0862 131.574 67.9202 131.505 67.8219L131.396 67.6638M132.09 69.004L131.396 67.6638M131.396 67.6638L129.83 67.5844M131.396 67.6638L129.83 67.5844M129.83 67.5844L129.705 67.7309M129.83 67.5844L129.705 67.7309M129.705 67.7309C129.673 67.7731 129.634 67.8197 129.591 67.872C129.532 67.9438 129.464 68.0262 129.391 68.1223M129.705 67.7309L129.391 68.1223M68.7477 62.4946L67.7181 60.7495C65.162 61.6647 62.511 62.1482 59.7921 62.1477H59.7919C54.255 62.1477 48.9801 60.1524 44.2312 56.5339L41.7831 54.6685L42.6128 57.6324C43.7692 61.7639 44.6148 66.2617 45.1243 70.954C46.1167 80.0948 47.0041 86.7823 48.4589 91.1839C49.1887 93.392 50.095 95.1362 51.3203 96.3329C52.5824 97.5655 54.1177 98.1533 55.9336 98.1533C58.1179 98.1533 59.7507 96.3189 60.9441 94.1632C62.1856 91.9208 63.196 88.8988 63.9938 85.6862C65.5915 79.2524 66.4012 71.782 66.4012 67.5741C66.4012 65.4335 67.2757 63.7915 68.7477 62.4946ZM97.9406 60.0281L94.5087 58.4984L96.6785 61.5659C97.2226 62.335 97.4095 63.3592 97.591 64.888C97.6074 65.0255 97.6236 65.1662 97.6402 65.3099C97.8003 66.696 97.9928 68.3618 98.6001 70.1527C99.2902 72.188 99.5965 74.8304 99.7863 77.7435C99.8586 78.8541 99.9143 80.0151 99.9703 81.1851C100.058 83.0106 100.146 84.8579 100.301 86.5689C100.556 89.3869 101.004 92.0907 102.027 94.1105C102.546 95.1363 103.234 96.0289 104.16 96.6632C105.096 97.304 106.211 97.6378 107.503 97.6378C109.622 97.6378 111.327 96.0261 112.668 93.9865C114.046 91.8899 115.254 89.0211 116.305 85.853C118.411 79.5024 119.963 71.6973 120.938 65.8058C121.326 63.46 121.876 61.2584 122.564 59.2703L123.531 56.4756L121.035 58.0627C116.876 60.7081 112.368 62.1482 107.667 62.1482C104.304 62.1482 101.044 61.4116 97.9406 60.0281Z" fill="#D59C64" stroke="#A41D2D" stroke-width="2.06297"/>
<path d="M17.3409 23.5977L17.3379 23.5902L17.0388 22.8496L17.0381 22.8478C16.7845 22.2166 16.5215 21.5893 16.2491 20.966C15.9086 20.1946 15.5094 19.324 15.0344 18.4587L15.0311 18.4525L15.0311 18.4525C14.7946 18.0147 14.5482 17.5892 14.2855 17.1981C14.005 16.7825 13.7398 16.4213 13.4772 16.1387L13.4724 16.1335L13.4677 16.1282C13.3536 16.002 13.2306 15.8843 13.0995 15.7758L13.081 15.7605L13.0782 15.7579L13.0708 15.7525L13.0509 15.7377C13.0376 15.7277 13.0198 15.7142 12.9996 15.6981L12.9854 15.687C12.9809 15.6837 12.9761 15.6801 12.9709 15.6762L12.9492 15.6623L12.9469 15.6608L12.9469 15.6608L12.7893 15.5597L12.7778 15.5523L12.7778 15.5522C12.7281 15.5194 12.7228 15.5157 12.7172 15.5126C12.7162 15.512 12.7152 15.5115 12.7138 15.5107L12.6959 15.501L12.6783 15.4906C12.3358 15.2868 11.916 15.1129 11.3997 14.8999C11.1044 14.7805 10.8306 14.6805 10.5421 14.5751C10.342 14.502 10.1348 14.4264 9.90851 14.3399L9.9071 14.3393C9.82763 14.3088 9.7467 14.278 9.66479 14.2468C9.26195 14.0934 8.8353 13.9309 8.44122 13.7512C7.5096 13.3426 6.70663 12.8652 6.16679 12.409C5.95778 12.2388 5.76124 12.0538 5.57868 11.8555L5.57175 11.8479L5.56497 11.8403L5.40896 11.6639L5.40589 11.6604L5.40589 11.6604C5.20857 11.4353 5.09451 11.1492 5.0828 10.8501C5.07108 10.551 5.16241 10.2569 5.34152 10.017C5.52063 9.77717 5.77666 9.60606 6.06681 9.53233C6.35695 9.4586 6.66361 9.48671 6.9355 9.61197L6.94145 9.61471L6.94144 9.61472L6.96107 9.62392L6.96181 9.62427L7.13536 9.70522C7.23397 9.7476 7.38156 9.80646 7.57436 9.86877L7.57887 9.87023L7.57886 9.87024C7.9586 9.99489 8.57304 10.125 9.39317 10.2062C9.82612 10.2467 10.2911 10.2889 10.7936 10.3227L17.3409 23.5977ZM17.3409 23.5977L17.3441 23.6051M17.3409 23.5977L17.3441 23.6051M17.3441 23.6051L17.3463 23.6104C17.514 24.0214 17.7618 24.395 18.0753 24.7093C18.3908 25.0256 18.7665 25.2755 19.1801 25.4442C19.5937 25.6129 20.037 25.6971 20.4837 25.6918C20.9304 25.6864 21.3714 25.5917 21.7809 25.4131C22.1904 25.2345 22.5599 24.9757 22.8678 24.652C23.1756 24.3282 23.4155 23.9461 23.5732 23.5282C23.731 23.1103 23.8034 22.665 23.7863 22.2186C23.7692 21.7726 23.663 21.3346 23.474 20.9303C23.4738 20.9299 23.4736 20.9295 23.4734 20.9291L23.3831 20.7346L23.3831 20.7346M17.3441 23.6051L23.3831 20.7346M12.5191 10.4829L12.5191 10.4829C13.1587 10.5594 13.8485 10.6809 14.5939 10.8991C14.7087 10.9311 14.8285 10.9721 14.9191 11.0034L14.9218 11.0044L15.1714 11.0915L15.1723 11.0919L15.2756 11.128L15.2791 11.1293L15.3024 11.1373L15.3544 11.1553L15.4042 11.1787L15.4583 11.2042L15.5207 11.2324L15.5284 11.2359L15.536 11.2395C15.5417 11.2421 15.5522 11.2469 15.5665 11.2534C15.6264 11.2806 15.7514 11.3372 15.8477 11.3885C16.2623 11.5982 16.629 11.8334 16.9598 12.0702L16.9634 12.0728L16.9634 12.0728C17.5908 12.5261 18.1739 13.0379 18.7048 13.6013C19.1754 14.0962 19.6204 14.6148 20.038 15.1551L20.0403 15.1581C20.8269 16.1834 21.4601 17.1717 21.9633 18.0281L21.9639 18.0292C22.366 18.7154 22.7432 19.4158 23.095 20.129L12.5191 10.4829ZM12.5191 10.4829L12.5146 10.4824M12.5191 10.4829L12.5146 10.4824M12.5146 10.4824C11.9031 10.4119 11.3312 10.3587 10.7937 10.3227L12.5146 10.4824ZM23.3831 20.7346L23.3807 20.7295M23.3831 20.7346L23.3807 20.7295M23.3807 20.7295C23.3695 20.7058 23.3557 20.6762 23.3396 20.6416M23.3807 20.7295L23.3396 20.6416M23.3396 20.6416C23.2822 20.5184 23.1955 20.3325 23.0952 20.1295L23.3396 20.6416ZM6.26013 11.0693L6.18158 10.9805L6.70848 11.7529C6.54314 11.6935 6.40718 11.6381 6.30245 11.5927L6.28952 11.587L6.27674 11.5811L6.08824 11.4932L6.08677 11.4925L6.08677 11.4925L6.0664 11.4829L6.12931 11.3486L6.13531 11.3358L6.26013 11.0693ZM12.67 14.4175C12.6736 14.4109 12.6775 14.4039 12.6818 14.3966C12.6746 14.4114 12.6676 14.4264 12.6607 14.4413C12.6639 14.4329 12.667 14.4249 12.67 14.4175Z" fill="#D59C64" stroke="#A41D2D" stroke-width="2.06297"/>
<path d="M47.8681 88.7752H49.2202H61.9351H63.2876L62.9298 90.0796L61.4971 95.3025L61.4971 95.3026C61.252 96.1958 60.7204 96.9838 59.9839 97.5454C59.2474 98.1071 58.3468 98.4113 57.4206 98.4114H57.4205H51.3185C49.5218 98.4114 48.0905 96.902 48.194 95.1047L47.8681 88.7752ZM47.8681 88.7752L48.2254 90.0792M47.8681 88.7752L48.2254 90.0792M48.2254 90.0792C48.3759 90.6286 48.4129 91.2937 48.3827 92.1503M48.2254 90.0792L48.3827 92.1503M48.3827 92.1503C48.3647 92.6618 48.327 93.1785 48.2854 93.7482M48.3827 92.1503L48.2854 93.7482M48.2854 93.7482C48.255 94.1656 48.2224 94.6115 48.194 95.1046L48.2854 93.7482ZM114.522 90.0796L114.88 88.7752H113.528H101.678H100.326L100.683 90.0792C100.812 90.5508 100.782 91.0339 100.656 91.7805C100.631 91.9244 100.603 92.0783 100.574 92.2418C100.455 92.8933 100.309 93.6976 100.255 94.6364L100.255 94.6366C100.152 96.4179 101.557 97.9167 103.332 97.9427L108.928 98.4078L108.97 98.4114L109.013 98.4114C109.939 98.4114 110.84 98.1072 111.576 97.5455C112.313 96.9838 112.845 96.1958 113.09 95.3025L114.522 90.0796Z" fill="#D59C64" stroke="#A41D2D" stroke-width="2.06297"/>
<path d="M123.243 22.1792L123.238 22.1747C123.126 22.0641 123.006 21.9619 122.88 21.8687C120.448 19.6264 117.142 18.4745 112.827 18.4745C109.284 18.4745 105.961 19.2921 102.907 20.0434C102.787 20.0728 102.668 20.1021 102.549 20.1313C99.3443 20.9184 96.4767 21.5818 93.7126 21.3335C90.2495 21.0224 86.8791 19.9165 83.3515 18.7589C83.0085 18.6463 82.664 18.5333 82.3178 18.4205C78.4603 17.1631 74.4153 15.9414 70.1179 15.9414C66.6681 15.9414 63.4114 16.1763 60.3002 16.4415C59.6397 16.4978 58.9868 16.5554 58.3405 16.6123C55.93 16.8248 53.61 17.0293 51.3182 17.1316C45.5536 17.3888 40.0926 16.9903 34.3442 14.4439C33.7513 14.0833 33.1147 13.7809 32.4472 13.5296C32.4254 13.5183 32.405 13.5079 32.3854 13.4978C32.3337 13.4713 32.2874 13.4475 32.2337 13.4191L31.4557 13.0073L31.3371 13.1651C29.792 12.731 28.0946 12.5311 26.333 12.5311C20.9751 12.5311 15.958 14.4192 14.4812 19.3386C14.1585 19.8868 13.843 20.4684 13.507 21.0878C12.2924 23.3267 10.8097 26.0597 7.74879 29.4996C4.19689 31.3062 1.16114 34.6889 1.16114 38.7633C1.16114 42.4218 3.61219 45.525 6.6696 47.4218C6.6686 47.4658 6.66815 47.5099 6.66825 47.554C6.66892 48.5439 7.3908 49.2368 8.06767 49.6739C8.79068 50.1408 9.76856 50.5222 10.8848 50.827C13.1319 51.4408 16.1781 51.8075 19.5018 51.8075C22.1515 51.8075 24.6196 51.5742 26.6465 51.1706C27.5152 52.0646 28.1805 53.1834 28.7623 54.4764C29.264 55.5913 29.6794 56.7753 30.1167 58.0217C30.2631 58.439 30.412 58.8634 30.5674 59.2945C31.7759 62.6469 33.3266 66.2668 37.0613 68.4116C39.2228 69.6529 40.6131 71.0801 41.5094 72.593C42.4089 74.1112 42.8434 75.7706 43.0122 77.5198C43.1819 79.2781 43.081 81.0965 42.9287 82.9294C42.8976 83.3038 42.8641 83.6807 42.8306 84.0583C42.7029 85.4959 42.5743 86.9423 42.5743 88.2869C42.5743 92.8615 43.0279 96.2376 43.8514 98.4251C44.2623 99.5163 44.802 100.412 45.5184 100.986C46.2825 101.597 47.1897 101.791 48.1208 101.541C48.991 101.308 49.7976 100.713 50.5308 99.9296C51.2743 99.1354 52.0094 98.0763 52.7247 96.7896C54.1561 94.2148 55.5682 90.6201 56.8245 86.1212C57.3899 84.0966 57.9998 82.5794 58.9673 81.3225C59.9256 80.0776 61.2946 79.0119 63.5005 78.0086C67.9859 75.9685 75.643 74.3032 89.5334 71.8402C94.0291 71.0431 97.2658 70.7768 99.6516 71.0997C101.975 71.4141 103.435 72.277 104.489 73.7577C105.595 75.3106 106.324 77.6352 106.915 81.0301C107.408 83.8628 107.788 87.3228 108.251 91.5328C108.34 92.3457 108.432 93.1865 108.529 94.0562C108.818 96.6452 109.368 98.6525 110.209 99.9495C110.636 100.61 111.179 101.146 111.858 101.437C112.558 101.737 113.297 101.731 114.01 101.487C115.354 101.028 116.634 99.7179 117.832 97.9044C119.059 96.0468 120.311 93.4868 121.533 90.2529L121.614 90.0394C123.338 85.4823 125.717 79.1926 127.257 61.5263C127.466 59.121 127.665 56.7786 127.836 54.5105C128.141 58.4234 128.312 62.8938 128.312 68.0148C128.312 68.0574 128.312 68.1009 128.312 68.1453C128.312 68.3959 128.311 68.6704 128.325 68.9238C128.341 69.221 128.379 69.5708 128.497 69.9053C128.62 70.2578 128.843 70.6264 129.238 70.8913C129.624 71.1497 130.067 71.2382 130.504 71.2382C130.941 71.2382 131.385 71.1497 131.77 70.8913C132.166 70.6264 132.389 70.2578 132.512 69.9053C132.629 69.5708 132.667 69.221 132.684 68.9238C132.697 68.6703 132.697 68.3957 132.696 68.1451C132.696 68.1008 132.696 68.0573 132.696 68.0148C132.696 67.4754 132.696 66.9409 132.696 66.4114C132.699 53.6941 132.702 43.8242 130.777 36.4996C129.142 30.2822 126.762 25.6986 123.243 22.1792Z" fill="#D59C64" stroke="#A41D2D" stroke-width="2.06297"/>
<path d="M18.2073 27.5369C18.0262 27.3368 17.7731 27.2168 17.5036 27.2033L18.2073 27.5369ZM18.2073 27.5369C18.3884 27.737 18.4826 28.0009 18.4691 28.2704M18.2073 27.5369L18.4691 28.2704M18.4691 28.2704C18.4691 28.2705 18.4691 28.2705 18.4691 28.2705M18.4691 28.2704L18.4691 28.2705M18.4691 28.2705L18.2926 31.802C18.2747 32.0673 18.1537 32.3152 17.9553 32.4924C17.7557 32.6709 17.4937 32.7634 17.2263 32.7501C16.9589 32.7367 16.7075 32.6185 16.5266 32.4211C16.3469 32.2249 16.2512 31.9663 16.2598 31.7005L16.4363 28.169C16.4363 28.169 16.4363 28.1689 16.4363 28.1689C16.4498 27.8994 16.5698 27.6462 16.77 27.4651C16.9701 27.2841 17.2339 27.1899 17.5034 27.2033L18.4691 28.2705Z" stroke="#A41D2D" stroke-width="2.06297"/>
<mask id="path-6-outside-1_32_297" maskUnits="userSpaceOnUse" x="6.00671" y="0.0455322" width="116" height="104" fill="black">
<rect fill="white" x="6.00671" y="0.0455322" width="116" height="104"/>
<path d="M31.9286 20.8621C31.9794 20.8634 32.0596 20.8611 32.1532 20.8681C32.3451 20.8776 32.62 20.8975 32.9433 20.9462C33.1115 20.9678 33.2781 20.996 33.4717 21.0401C33.6734 21.0862 33.8696 21.1576 34.0914 21.2257C34.3145 21.2928 34.5272 21.3874 34.7668 21.4769C35.005 21.5684 35.2155 21.6788 35.4584 21.7879C35.9539 22.0249 36.4277 22.3049 36.8743 22.6247C37.3475 22.9506 37.8035 23.3418 38.2444 23.7722C38.6846 24.2039 39.0975 24.6933 39.4776 25.2194C39.8512 25.7578 40.2037 26.3169 40.5005 26.9335C40.802 27.5335 41.0503 28.1929 41.2566 28.8471C41.3585 29.1762 41.4387 29.5276 41.5124 29.8655C41.5831 30.2048 41.646 30.5437 41.6808 30.9011C41.7214 31.2448 41.7483 31.59 41.7615 31.9359C41.7682 32.283 41.7612 32.6302 41.7404 32.9767C41.7288 33.1466 41.7223 33.3081 41.7015 33.4759C41.678 33.6487 41.6612 33.815 41.6282 33.9821C41.5653 34.3148 41.5142 34.6263 41.4384 34.9262C41.2574 35.5652 41.0728 36.1031 40.826 36.6016C40.6945 36.852 40.5841 37.0761 40.451 37.2803C40.3211 37.4851 40.2177 37.6591 40.0751 37.8285C39.8239 38.1586 39.5678 38.3928 39.4172 38.5459C39.3419 38.6228 39.2674 38.679 39.2236 38.7167L39.1385 38.7865C38.5219 39.2909 37.6232 39.2239 37.0827 38.6563L36.9094 38.4735C36.8094 38.3574 36.641 38.1932 36.4739 38.0052C36.2983 37.8172 36.0538 37.5859 35.8274 37.353C35.7014 37.2253 35.5726 37.1006 35.4408 36.9789C35.3029 36.8499 35.1768 36.7156 35.0383 36.5825C34.8851 36.443 34.7433 36.2978 34.5904 36.1542C34.5122 36.083 34.4467 36.0075 34.3748 35.9337L34.1355 35.7039C33.9723 35.5505 33.8299 35.3875 33.6744 35.2284C33.4985 35.068 33.3531 34.8929 33.1894 34.7245C33.03 34.5577 32.8742 34.3769 32.7082 34.1975L32.4634 33.928C32.3869 33.8349 32.3172 33.7413 32.2321 33.6474C31.8972 33.2758 31.5988 32.8872 31.2798 32.4903C30.9807 32.0914 30.6705 31.684 30.3963 31.2678C30.329 31.1636 30.2488 31.0646 30.18 30.9604L29.9781 30.6455C29.8436 30.4398 29.7139 30.231 29.5892 30.0192C29.3316 29.6053 29.1139 29.1811 28.8986 28.7765C28.7035 28.3845 28.5198 27.9869 28.3476 27.5843C28.1892 27.1937 28.0603 26.8455 27.9582 26.5214L27.6915 25.6204C27.6111 25.3555 27.5737 25.1245 27.5368 24.977C27.5048 24.8251 27.495 24.7377 27.495 24.7377C27.2813 22.8176 28.6642 21.0878 30.5843 20.874C30.7185 20.859 30.8534 20.8518 30.9884 20.8523L31.9286 20.8621Z"/>
<path d="M53.1443 93.493L51.7675 98.716C51.4016 100.104 50.189 101.066 48.8061 101.066H45.5244C44.366 101.066 43.4449 100.054 43.5115 98.8503C43.6332 96.6512 43.8774 94.8956 43.5081 93.493H53.1443ZM109.459 93.493C109.843 94.8956 109.589 96.6512 109.462 98.8503C109.393 100.054 110.351 101.066 111.557 101.066H114.515C115.215 101.066 115.896 100.836 116.453 100.412C117.01 99.987 117.411 99.3912 117.597 98.716L119.03 93.493H109.459ZM22.6904 17.7738L22.3332 16.9254C22.2352 16.723 22.1421 16.4976 21.9982 16.2011L21.7563 15.7199C21.6687 15.5515 21.5627 15.3836 21.4647 15.1987C21.242 14.8068 21.0001 14.4262 20.7398 14.0582C20.4696 13.6577 20.1532 13.2544 19.8086 12.8441C19.4525 12.4444 19.0843 12.0197 18.6603 11.6277C18.2327 11.2186 17.7865 10.8292 17.3233 10.4609C17.0896 10.2698 16.8426 10.0921 16.5984 9.9103L15.8423 9.38321C15.6283 9.22926 15.3645 9.0601 15.1112 8.90383C14.8554 8.74446 14.5888 8.59619 14.325 8.43914C13.7961 8.12531 13.2512 7.82902 12.7275 7.51338C12.2068 7.19311 11.6993 6.87257 11.2535 6.52083C10.8081 6.17168 10.4154 5.81014 10.1127 5.45015C9.80605 5.09377 9.57963 4.75261 9.42414 4.45992C9.30185 4.23818 9.19734 4.00709 9.1116 3.76882L9.02624 3.51946C9.00024 3.44408 9.0002 3.36216 9.02613 3.28674C9.05206 3.21133 9.10246 3.14675 9.16932 3.10329C9.23618 3.05982 9.31565 3.03997 9.39509 3.04688C9.47454 3.05379 9.54939 3.08707 9.60774 3.14142L9.79986 3.32013C9.91255 3.41992 10.0804 3.56046 10.2994 3.71777C10.5593 3.90141 10.8348 4.0619 11.1227 4.19741C11.4554 4.34852 11.8306 4.50092 12.2721 4.62212C12.7582 4.75994 13.25 4.87704 13.7461 4.97309L15.5246 5.34674C15.8454 5.41714 16.1719 5.50353 16.5105 5.59636C16.8516 5.69229 17.1845 5.79028 17.5636 5.92257C18.2333 6.15156 18.912 6.44966 19.5799 6.77045C19.9169 6.92647 20.245 7.10646 20.5766 7.27923C20.9007 7.46671 21.2269 7.64954 21.5387 7.85558C22.1723 8.25038 22.7713 8.69212 23.3366 9.14339C23.8905 9.60859 24.4129 10.0828 24.8792 10.5663C25.316 11.0238 25.7295 11.503 26.118 12.0022C26.2959 12.2366 26.4659 12.463 26.6193 12.6832L27.0412 13.3189C27.3039 13.7291 27.5224 14.1438 27.7016 14.4568L28.1129 15.2805C28.8499 16.7555 28.2516 18.5485 26.7769 19.2855C25.3018 20.0225 23.5088 19.4242 22.7718 17.9495C22.7427 17.8918 22.7156 17.8333 22.6904 17.7738Z"/>
</mask>
<path d="M31.9286 20.8621C31.9794 20.8634 32.0596 20.8611 32.1532 20.8681C32.3451 20.8776 32.62 20.8975 32.9433 20.9462C33.1115 20.9678 33.2781 20.996 33.4717 21.0401C33.6734 21.0862 33.8696 21.1576 34.0914 21.2257C34.3145 21.2928 34.5272 21.3874 34.7668 21.4769C35.005 21.5684 35.2155 21.6788 35.4584 21.7879C35.9539 22.0249 36.4277 22.3049 36.8743 22.6247C37.3475 22.9506 37.8035 23.3418 38.2444 23.7722C38.6846 24.2039 39.0975 24.6933 39.4776 25.2194C39.8512 25.7578 40.2037 26.3169 40.5005 26.9335C40.802 27.5335 41.0503 28.1929 41.2566 28.8471C41.3585 29.1762 41.4387 29.5276 41.5124 29.8655C41.5831 30.2048 41.646 30.5437 41.6808 30.9011C41.7214 31.2448 41.7483 31.59 41.7615 31.9359C41.7682 32.283 41.7612 32.6302 41.7404 32.9767C41.7288 33.1466 41.7223 33.3081 41.7015 33.4759C41.678 33.6487 41.6612 33.815 41.6282 33.9821C41.5653 34.3148 41.5142 34.6263 41.4384 34.9262C41.2574 35.5652 41.0728 36.1031 40.826 36.6016C40.6945 36.852 40.5841 37.0761 40.451 37.2803C40.3211 37.4851 40.2177 37.6591 40.0751 37.8285C39.8239 38.1586 39.5678 38.3928 39.4172 38.5459C39.3419 38.6228 39.2674 38.679 39.2236 38.7167L39.1385 38.7865C38.5219 39.2909 37.6232 39.2239 37.0827 38.6563L36.9094 38.4735C36.8094 38.3574 36.641 38.1932 36.4739 38.0052C36.2983 37.8172 36.0538 37.5859 35.8274 37.353C35.7014 37.2253 35.5726 37.1006 35.4408 36.9789C35.3029 36.8499 35.1768 36.7156 35.0383 36.5825C34.8851 36.443 34.7433 36.2978 34.5904 36.1542C34.5122 36.083 34.4467 36.0075 34.3748 35.9337L34.1355 35.7039C33.9723 35.5505 33.8299 35.3875 33.6744 35.2284C33.4985 35.068 33.3531 34.8929 33.1894 34.7245C33.03 34.5577 32.8742 34.3769 32.7082 34.1975L32.4634 33.928C32.3869 33.8349 32.3172 33.7413 32.2321 33.6474C31.8972 33.2758 31.5988 32.8872 31.2798 32.4903C30.9807 32.0914 30.6705 31.684 30.3963 31.2678C30.329 31.1636 30.2488 31.0646 30.18 30.9604L29.9781 30.6455C29.8436 30.4398 29.7139 30.231 29.5892 30.0192C29.3316 29.6053 29.1139 29.1811 28.8986 28.7765C28.7035 28.3845 28.5198 27.9869 28.3476 27.5843C28.1892 27.1937 28.0603 26.8455 27.9582 26.5214L27.6915 25.6204C27.6111 25.3555 27.5737 25.1245 27.5368 24.977C27.5048 24.8251 27.495 24.7377 27.495 24.7377C27.2813 22.8176 28.6642 21.0878 30.5843 20.874C30.7185 20.859 30.8534 20.8518 30.9884 20.8523L31.9286 20.8621Z" fill="#D59C64"/>
<path d="M53.1443 93.493L51.7675 98.716C51.4016 100.104 50.189 101.066 48.8061 101.066H45.5244C44.366 101.066 43.4449 100.054 43.5115 98.8503C43.6332 96.6512 43.8774 94.8956 43.5081 93.493H53.1443ZM109.459 93.493C109.843 94.8956 109.589 96.6512 109.462 98.8503C109.393 100.054 110.351 101.066 111.557 101.066H114.515C115.215 101.066 115.896 100.836 116.453 100.412C117.01 99.987 117.411 99.3912 117.597 98.716L119.03 93.493H109.459ZM22.6904 17.7738L22.3332 16.9254C22.2352 16.723 22.1421 16.4976 21.9982 16.2011L21.7563 15.7199C21.6687 15.5515 21.5627 15.3836 21.4647 15.1987C21.242 14.8068 21.0001 14.4262 20.7398 14.0582C20.4696 13.6577 20.1532 13.2544 19.8086 12.8441C19.4525 12.4444 19.0843 12.0197 18.6603 11.6277C18.2327 11.2186 17.7865 10.8292 17.3233 10.4609C17.0896 10.2698 16.8426 10.0921 16.5984 9.9103L15.8423 9.38321C15.6283 9.22926 15.3645 9.0601 15.1112 8.90383C14.8554 8.74446 14.5888 8.59619 14.325 8.43914C13.7961 8.12531 13.2512 7.82902 12.7275 7.51338C12.2068 7.19311 11.6993 6.87257 11.2535 6.52083C10.8081 6.17168 10.4154 5.81014 10.1127 5.45015C9.80605 5.09377 9.57963 4.75261 9.42414 4.45992C9.30185 4.23818 9.19734 4.00709 9.1116 3.76882L9.02624 3.51946C9.00024 3.44408 9.0002 3.36216 9.02613 3.28674C9.05206 3.21133 9.10246 3.14675 9.16932 3.10329C9.23618 3.05982 9.31565 3.03997 9.39509 3.04688C9.47454 3.05379 9.54939 3.08707 9.60774 3.14142L9.79986 3.32013C9.91255 3.41992 10.0804 3.56046 10.2994 3.71777C10.5593 3.90141 10.8348 4.0619 11.1227 4.19741C11.4554 4.34852 11.8306 4.50092 12.2721 4.62212C12.7582 4.75994 13.25 4.87704 13.7461 4.97309L15.5246 5.34674C15.8454 5.41714 16.1719 5.50353 16.5105 5.59636C16.8516 5.69229 17.1845 5.79028 17.5636 5.92257C18.2333 6.15156 18.912 6.44966 19.5799 6.77045C19.9169 6.92647 20.245 7.10646 20.5766 7.27923C20.9007 7.46671 21.2269 7.64954 21.5387 7.85558C22.1723 8.25038 22.7713 8.69212 23.3366 9.14339C23.8905 9.60859 24.4129 10.0828 24.8792 10.5663C25.316 11.0238 25.7295 11.503 26.118 12.0022C26.2959 12.2366 26.4659 12.463 26.6193 12.6832L27.0412 13.3189C27.3039 13.7291 27.5224 14.1438 27.7016 14.4568L28.1129 15.2805C28.8499 16.7555 28.2516 18.5485 26.7769 19.2855C25.3018 20.0225 23.5088 19.4242 22.7718 17.9495C22.7427 17.8918 22.7156 17.8333 22.6904 17.7738Z" fill="#D59C64"/>
<path d="M31.9286 20.8621C31.9794 20.8634 32.0596 20.8611 32.1532 20.8681C32.3451 20.8776 32.62 20.8975 32.9433 20.9462C33.1115 20.9678 33.2781 20.996 33.4717 21.0401C33.6734 21.0862 33.8696 21.1576 34.0914 21.2257C34.3145 21.2928 34.5272 21.3874 34.7668 21.4769C35.005 21.5684 35.2155 21.6788 35.4584 21.7879C35.9539 22.0249 36.4277 22.3049 36.8743 22.6247C37.3475 22.9506 37.8035 23.3418 38.2444 23.7722C38.6846 24.2039 39.0975 24.6933 39.4776 25.2194C39.8512 25.7578 40.2037 26.3169 40.5005 26.9335C40.802 27.5335 41.0503 28.1929 41.2566 28.8471C41.3585 29.1762 41.4387 29.5276 41.5124 29.8655C41.5831 30.2048 41.646 30.5437 41.6808 30.9011C41.7214 31.2448 41.7483 31.59 41.7615 31.9359C41.7682 32.283 41.7612 32.6302 41.7404 32.9767C41.7288 33.1466 41.7223 33.3081 41.7015 33.4759C41.678 33.6487 41.6612 33.815 41.6282 33.9821C41.5653 34.3148 41.5142 34.6263 41.4384 34.9262C41.2574 35.5652 41.0728 36.1031 40.826 36.6016C40.6945 36.852 40.5841 37.0761 40.451 37.2803C40.3211 37.4851 40.2177 37.6591 40.0751 37.8285C39.8239 38.1586 39.5678 38.3928 39.4172 38.5459C39.3419 38.6228 39.2674 38.679 39.2236 38.7167L39.1385 38.7865C38.5219 39.2909 37.6232 39.2239 37.0827 38.6563L36.9094 38.4735C36.8094 38.3574 36.641 38.1932 36.4739 38.0052C36.2983 37.8172 36.0538 37.5859 35.8274 37.353C35.7014 37.2253 35.5726 37.1006 35.4408 36.9789C35.3029 36.8499 35.1768 36.7156 35.0383 36.5825C34.8851 36.443 34.7433 36.2978 34.5904 36.1542C34.5122 36.083 34.4467 36.0075 34.3748 35.9337L34.1355 35.7039C33.9723 35.5505 33.8299 35.3875 33.6744 35.2284C33.4985 35.068 33.3531 34.8929 33.1894 34.7245C33.03 34.5577 32.8742 34.3769 32.7082 34.1975L32.4634 33.928C32.3869 33.8349 32.3172 33.7413 32.2321 33.6474C31.8972 33.2758 31.5988 32.8872 31.2798 32.4903C30.9807 32.0914 30.6705 31.684 30.3963 31.2678C30.329 31.1636 30.2488 31.0646 30.18 30.9604L29.9781 30.6455C29.8436 30.4398 29.7139 30.231 29.5892 30.0192C29.3316 29.6053 29.1139 29.1811 28.8986 28.7765C28.7035 28.3845 28.5198 27.9869 28.3476 27.5843C28.1892 27.1937 28.0603 26.8455 27.9582 26.5214L27.6915 25.6204C27.6111 25.3555 27.5737 25.1245 27.5368 24.977C27.5048 24.8251 27.495 24.7377 27.495 24.7377C27.2813 22.8176 28.6642 21.0878 30.5843 20.874C30.7185 20.859 30.8534 20.8518 30.9884 20.8523L31.9286 20.8621Z" stroke="#A41D2D" stroke-width="4.12595" mask="url(#path-6-outside-1_32_297)"/>
<path d="M53.1443 93.493L51.7675 98.716C51.4016 100.104 50.189 101.066 48.8061 101.066H45.5244C44.366 101.066 43.4449 100.054 43.5115 98.8503C43.6332 96.6512 43.8774 94.8956 43.5081 93.493H53.1443ZM109.459 93.493C109.843 94.8956 109.589 96.6512 109.462 98.8503C109.393 100.054 110.351 101.066 111.557 101.066H114.515C115.215 101.066 115.896 100.836 116.453 100.412C117.01 99.987 117.411 99.3912 117.597 98.716L119.03 93.493H109.459ZM22.6904 17.7738L22.3332 16.9254C22.2352 16.723 22.1421 16.4976 21.9982 16.2011L21.7563 15.7199C21.6687 15.5515 21.5627 15.3836 21.4647 15.1987C21.242 14.8068 21.0001 14.4262 20.7398 14.0582C20.4696 13.6577 20.1532 13.2544 19.8086 12.8441C19.4525 12.4444 19.0843 12.0197 18.6603 11.6277C18.2327 11.2186 17.7865 10.8292 17.3233 10.4609C17.0896 10.2698 16.8426 10.0921 16.5984 9.9103L15.8423 9.38321C15.6283 9.22926 15.3645 9.0601 15.1112 8.90383C14.8554 8.74446 14.5888 8.59619 14.325 8.43914C13.7961 8.12531 13.2512 7.82902 12.7275 7.51338C12.2068 7.19311 11.6993 6.87257 11.2535 6.52083C10.8081 6.17168 10.4154 5.81014 10.1127 5.45015C9.80605 5.09377 9.57963 4.75261 9.42414 4.45992C9.30185 4.23818 9.19734 4.00709 9.1116 3.76882L9.02624 3.51946C9.00024 3.44408 9.0002 3.36216 9.02613 3.28674C9.05206 3.21133 9.10246 3.14675 9.16932 3.10329C9.23618 3.05982 9.31565 3.03997 9.39509 3.04688C9.47454 3.05379 9.54939 3.08707 9.60774 3.14142L9.79986 3.32013C9.91255 3.41992 10.0804 3.56046 10.2994 3.71777C10.5593 3.90141 10.8348 4.0619 11.1227 4.19741C11.4554 4.34852 11.8306 4.50092 12.2721 4.62212C12.7582 4.75994 13.25 4.87704 13.7461 4.97309L15.5246 5.34674C15.8454 5.41714 16.1719 5.50353 16.5105 5.59636C16.8516 5.69229 17.1845 5.79028 17.5636 5.92257C18.2333 6.15156 18.912 6.44966 19.5799 6.77045C19.9169 6.92647 20.245 7.10646 20.5766 7.27923C20.9007 7.46671 21.2269 7.64954 21.5387 7.85558C22.1723 8.25038 22.7713 8.69212 23.3366 9.14339C23.8905 9.60859 24.4129 10.0828 24.8792 10.5663C25.316 11.0238 25.7295 11.503 26.118 12.0022C26.2959 12.2366 26.4659 12.463 26.6193 12.6832L27.0412 13.3189C27.3039 13.7291 27.5224 14.1438 27.7016 14.4568L28.1129 15.2805C28.8499 16.7555 28.2516 18.5485 26.7769 19.2855C25.3018 20.0225 23.5088 19.4242 22.7718 17.9495C22.7427 17.8918 22.7156 17.8333 22.6904 17.7738Z" stroke="#A41D2D" stroke-width="4.12595" mask="url(#path-6-outside-1_32_297)"/>
</svg>
