<svg width="131" height="124" viewBox="0 0 131 124" fill="none" xmlns="http://www.w3.org/2000/svg">
<path d="M87.3753 117.562C93.7613 107.165 96.5306 94.9485 95.2521 82.8142L89.414 74.2393L77.9882 69.9699C78.1412 71.7527 82.3549 85.3342 83.5871 88.8776C83.8652 89.6814 83.9876 90.527 83.9514 91.3753C83.2617 106.67 79.6097 110.809 78.6807 111.621C78.6217 111.666 78.5633 111.713 78.5055 111.76L78.461 111.788L78.4694 111.796C77.4542 112.658 76.8283 113.896 76.7393 115.228C76.7016 116.651 77.2257 118.031 78.1981 119.07C79.1705 120.109 80.513 120.723 81.9349 120.78C82.7682 120.844 83.6051 120.72 84.384 120.417C85.1629 120.114 85.8639 119.64 86.4352 119.03L86.4408 119.036L86.463 119.003C86.8491 118.579 87.156 118.091 87.3753 117.562ZM58.0207 115.092C58.5296 108.325 58.68 101.535 58.4713 94.7519C58.7976 89.6699 57.7687 84.5924 55.4897 80.0384L49.5793 81.1287L46.5142 88.3075L49.0063 95.6503C52.3217 105.076 50.9255 109.488 49.4652 111.46C48.8228 111.842 48.2531 112.336 47.7825 112.917L47.7603 112.925L47.7686 112.931C47.156 113.641 46.7518 114.506 46.6006 115.431C46.4494 116.357 46.5572 117.306 46.912 118.174C48.3305 120.877 51.6681 121.929 54.3799 120.53C55.1402 120.202 55.8267 119.724 56.3987 119.125C56.9706 118.527 57.4163 117.819 57.7092 117.045C57.7148 117.017 57.7315 116.989 57.737 116.967C57.9512 116.366 58.0458 115.729 58.0207 115.092Z" fill="#D59C64"/>
<path d="M22.0212 34.1317C26.9412 41.6077 29.6804 50.3069 29.9314 59.253C29.9314 59.342 29.9426 59.4283 29.9648 59.5145C30.204 60.5603 31.959 67.6889 35.9058 70.3729C35.9058 70.3729 42.6451 77.0288 30.802 80.6251C30.802 80.6251 11.7441 87.3421 17.5627 98.8263C17.5627 98.8263 21.6875 105.994 26.8914 99.0322L27.164 98.4954C27.6079 96.9533 27.4956 95.3043 26.8469 93.8366C26.6049 93.2886 26.8163 92.4459 27.2697 92.0565C28.7942 90.7473 30.6165 89.832 32.577 89.3907C34.5375 88.9494 36.5763 88.9957 38.5147 89.5255C38.5147 89.5255 44.9731 92.254 53.0502 79.5821L53.306 79.2817C54.6133 78.1969 64.6012 70.4759 82.6995 72.2615C83.0367 72.2918 83.3536 72.436 83.5979 72.6704C85.9732 74.9706 99.3961 87.7954 107.351 91.834L107.712 92.1038C110.021 94.5614 111.701 97.541 112.608 100.788C113.516 104.036 113.624 107.454 112.925 110.753L112.544 111.451C111.367 112.647 107.445 117.35 115.019 120.229L115.631 120.335C117.244 120.276 124.345 119.467 121.277 109.829C121.232 109.698 121.207 109.56 121.205 109.421C121.194 107.412 120.96 90.0622 116.354 80.3831L115.965 79.8824C114.927 79.0286 110.752 73.972 113.906 49.4988C113.92 49.3736 114.407 49.0899 114.371 48.9703C113.826 47.0901 117.497 41.3772 119.222 39.7139C119.736 39.2522 138.63 22.1134 126.848 10.0924C126.765 10.0089 126.228 9.36921 125.399 8.74897C124.17 7.68927 115.353 0.187922 105.624 5.16101C102.634 6.68798 100.358 9.30524 98.7313 12.2424C97.7388 14.0318 96.904 15.9042 96.2365 17.8385C94.1616 25.1173 99.1986 31.1835 101.972 24.1383C102.222 23.5041 105.615 18.4559 105.854 17.7161C105.929 17.4763 106.063 17.2592 106.244 17.0847C107.673 15.7636 114.346 10.39 117.698 21.8492C117.698 21.8492 120.671 31.9456 105.318 37.1161C104.962 37.2391 104.572 37.2232 104.227 37.0716C102.072 36.1037 92.9544 32.6993 78.5525 36.8547L78.4858 36.8714C77.6347 37.016 50.0379 41.6053 46.9256 18.5171C46.9256 18.5171 44.8674 5.78959 38.359 5.61159L23.8764 3.42543C23.8764 3.42543 17.5599 3.37815 16.6003 8.13707C16.6003 8.13707 16.4863 12.0365 9.30202 11.8307C7.45797 11.8391 0.640844 10.6598 3.50009 18.2612C3.62845 18.5822 3.64413 18.9371 3.54459 19.2681C2.93825 21.14 1.35566 28.0294 10.7122 28.747C10.7122 28.747 18.8977 28.3298 22.0212 34.1317Z" fill="#D59C64"/>
<path d="M81.806 73.7621C81.3153 72.3065 79.7375 71.5242 78.2819 72.0149C76.8263 72.5056 76.044 74.0834 76.5347 75.539L81.806 73.7621ZM84.4076 88.8773L81.7983 89.8401L81.7985 89.8409L84.4076 88.8773ZM84.7942 91.3749L87.5724 91.5083L87.5727 91.5025L84.7942 91.3749ZM79.1898 111.621L80.7781 113.904L80.8701 113.84L80.9567 113.769L79.1898 111.621ZM83.5271 117.385C82.3807 118.408 82.2801 120.166 83.3025 121.312C84.3249 122.459 86.0831 122.559 87.2296 121.537L83.5271 117.385ZM98.0125 82.7195C97.9604 81.1843 96.6736 79.982 95.1384 80.0341C93.6031 80.0862 92.4008 81.373 92.453 82.9082L98.0125 82.7195ZM77.1233 115.228L74.3851 114.74L74.359 114.886L74.3487 115.034L77.1233 115.228ZM81.796 120.78L81.5135 123.547L81.552 123.551L81.5906 123.553L81.796 120.78ZM85.8484 119.033L87.8165 117.068L85.6372 114.885L83.6909 117.278L85.8484 119.033ZM49.0092 95.6527L46.3754 96.5466L46.3802 96.5609L46.3852 96.5751L49.0092 95.6527ZM49.4653 111.459L51.2876 113.561L51.5177 113.361L51.6991 113.116L49.4653 111.459ZM47.7687 112.931L45.9464 110.829L45.7945 110.961L45.663 111.113L47.7687 112.931ZM46.912 118.173L44.3375 119.226L44.3876 119.348L44.4491 119.466L46.912 118.173ZM54.38 120.529L53.2782 117.975L53.1901 118.013L53.1048 118.057L54.38 120.529ZM57.7093 117.044L60.3108 118.028L60.3918 117.814L60.4367 117.59L57.7093 117.044ZM57.7371 116.966L55.1172 116.032L55.0717 116.16L55.0388 116.292L57.7371 116.966ZM58.0236 115.094L55.4021 114.165L55.2233 114.669L55.2444 115.204L58.0236 115.094ZM19.6641 92.6352C20.0974 91.1615 19.2541 89.6155 17.7803 89.1822C16.3066 88.7488 14.7606 89.5922 14.3273 91.066L19.6641 92.6352ZM17.5631 98.8263L20.1555 97.8185L20.1164 97.718L20.0696 97.6207L17.5631 98.8263ZM24.3385 101.841L25.3253 104.442L25.4118 104.409L25.4959 104.37L24.3385 101.841ZM28.5633 93.1924C28.1277 91.7193 26.5804 90.8783 25.1073 91.3139C23.6343 91.7495 22.7933 93.2968 23.2289 94.7699L28.5633 93.1924ZM23.6481 91.7635C22.6538 92.9343 22.7969 94.6896 23.9677 95.6839C25.1386 96.6783 26.8938 96.5352 27.8882 95.3643L23.6481 91.7635ZM36.087 89.0804L35.9565 91.8587L36.0068 91.861L36.0571 91.8616L36.087 89.0804ZM37.6112 89.3112L38.554 86.6945L38.4801 86.6679L38.4049 86.6455L37.6112 89.3112ZM50.2483 86.8438C50.9962 85.5021 50.5148 83.8081 49.173 83.0602C47.8313 82.3123 46.1373 82.7937 45.3894 84.1354L50.2483 86.8438ZM116.993 51.1243C117.074 49.5904 115.896 48.2815 114.362 48.2009C112.828 48.1203 111.519 49.2985 111.438 50.8324L116.993 51.1243ZM113.392 66.6458L116.169 66.8038L116.17 66.7918L113.392 66.6458ZM115.64 79.276L117.91 77.6697L117.7 77.3729L117.421 77.14L115.64 79.276ZM119.178 92.4959L116.408 92.2384L116.384 92.496L116.408 92.7537L119.178 92.4959ZM118.342 114.922C118.453 116.454 119.784 117.606 121.316 117.496C122.848 117.385 124.001 116.054 123.89 114.522L118.342 114.922ZM97.7957 24.2844C97.2328 25.7136 97.9352 27.3286 99.3644 27.8915C100.794 28.4544 102.409 27.752 102.972 26.3228L97.7957 24.2844ZM114.791 16.431L116.956 14.6848L116.955 14.6841L114.791 16.431ZM106.92 36.4235L107.98 38.9951L108.02 38.9783L108.06 38.9602L106.92 36.4235ZM103.054 36.3679L104.187 33.8278L104.139 33.8064L104.09 33.7869L103.054 36.3679ZM78.5054 36.8685L78.7639 39.6378L78.8991 39.6252L79.0325 39.5995L78.5054 36.8685ZM52.1436 29.7565L54.6371 28.5242L54.6232 28.4962L54.6088 28.4686L52.1436 29.7565ZM43.6215 9.6556L40.9599 10.463L40.9704 10.4976L40.9818 10.5319L43.6215 9.6556ZM40.7066 6.42087L41.7858 3.85739L41.6918 3.81785L41.5953 3.78529L40.7066 6.42087ZM26.3742 3.54493L26.0571 6.30816L26.1171 6.31505L26.1773 6.31932L26.3742 3.54493ZM16.5977 8.13419L19.1905 9.141L19.2836 8.90113L19.3312 8.64824L16.5977 8.13419ZM12.6009 11.8167L12.7421 9.03894L12.6663 9.03509L12.5904 9.03537L12.6009 11.8167ZM7.41642 11.8362L7.40597 9.05484L7.33303 9.05512L7.2602 9.05921L7.41642 11.8362ZM3.71441 18.798L6.44705 19.3164L6.60149 18.5022L6.28518 17.7363L3.71441 18.798ZM12.3033 29.1641L11.8274 31.9045L12.031 31.9398L12.2377 31.9447L12.3033 29.1641ZM21.1898 32.8689L23.5 31.3202L23.3338 31.0722L23.1187 30.8651L21.1898 32.8689ZM29.3364 54.6387L32.1131 54.4777L32.1076 54.3837L32.0958 54.2902L29.3364 54.6387ZM34.1593 68.4398L36.0961 66.4436L36.0285 66.3781L35.9567 66.3172L34.1593 68.4398ZM34.1593 79.0646L35.1064 81.6798L35.1193 81.6751L34.1593 79.0646ZM14.399 91.1113C13.9769 92.5882 14.832 94.1277 16.309 94.5499C17.7859 94.972 19.3255 94.1169 19.7476 92.64L14.399 91.1113ZM121.113 114.722L123.877 114.413L118.338 114.914L121.113 114.722ZM115.317 120.337L115.496 117.562L115.415 117.557L115.334 117.556L115.317 120.337ZM110.088 115.081L107.336 114.675L107.306 114.878L107.306 115.083L110.088 115.081ZM113.677 111.869C114.145 110.405 113.337 108.84 111.874 108.373C110.411 107.906 108.846 108.713 108.378 110.176L113.677 111.869ZM118.414 115.999C118.52 117.531 119.848 118.687 121.38 118.581C122.913 118.475 124.069 117.147 123.963 115.614L118.414 115.999ZM107.949 111.932C107.508 113.404 108.344 114.954 109.815 115.395C111.287 115.836 112.837 115 113.278 113.529L107.949 111.932ZM108.867 93.2193L111.166 91.6541L111.161 91.6461L111.155 91.6381L108.867 93.2193ZM107.529 91.9205L106.002 94.2454L106.009 94.2499L106.016 94.2543L107.529 91.9205ZM87.1528 74.2866L89.4206 72.6763L89.4112 72.6629L89.4016 72.6498L87.1528 74.2866ZM84.0377 72.5538L83.7949 75.3245L83.8139 75.3262L83.833 75.3276L84.0377 72.5538ZM44.8438 85.1081C44.1245 86.4654 44.6417 88.1488 45.999 88.8681C47.3562 89.5874 49.0396 89.0703 49.759 87.713L44.8438 85.1081ZM76.5347 75.539C77.1355 77.3215 81.4548 88.9095 81.7983 89.8401L87.017 87.9144C86.6317 86.8702 82.3733 75.4452 81.806 73.7621L76.5347 75.539ZM81.7985 89.8409C81.9636 90.288 82.0378 90.7678 82.0158 91.2474L87.5727 91.5025C87.6286 90.2854 87.4413 89.0631 87.0167 87.9136L81.7985 89.8409ZM82.0161 91.2415C81.2992 106.174 77.5407 109.376 77.4229 109.472L80.9567 113.769C82.8136 112.241 86.8207 107.166 87.5724 91.5083L82.0161 91.2415ZM77.6014 109.337C77.6059 109.334 77.6166 109.327 77.6313 109.317C77.6419 109.31 77.6755 109.287 77.7206 109.26C77.7421 109.247 77.7873 109.219 77.8465 109.187C77.8765 109.171 77.9242 109.146 77.9843 109.117C78.0151 109.103 78.0553 109.084 78.1029 109.065C78.1491 109.045 78.2143 109.02 78.294 108.993C78.369 108.968 78.4905 108.931 78.6437 108.902C78.7225 108.887 78.8244 108.87 78.944 108.861C79.0616 108.851 79.2198 108.846 79.4056 108.861C79.5893 108.877 79.8378 108.916 80.1169 109.017C80.4017 109.12 80.7341 109.294 81.047 109.58C81.1616 109.69 81.3721 109.933 81.4672 110.064C81.5539 110.199 81.7006 110.477 81.7608 110.619C81.9082 110.996 81.951 111.346 81.9521 111.622C81.9531 111.894 81.914 112.122 81.8744 112.286C81.8342 112.452 81.7849 112.589 81.7434 112.69C81.7011 112.793 81.6587 112.878 81.6232 112.945C81.5873 113.012 81.5532 113.069 81.5243 113.115C81.4679 113.204 81.4162 113.275 81.3799 113.322C81.3422 113.372 81.3085 113.412 81.2828 113.442C81.2326 113.501 81.1896 113.546 81.1632 113.573C81.1349 113.602 81.1106 113.626 81.0932 113.642C81.0592 113.675 81.0311 113.7 81.0151 113.714C80.9828 113.743 80.9571 113.764 80.9455 113.774C80.92 113.795 80.9001 113.81 80.8884 113.819C80.8766 113.828 80.8567 113.844 80.8304 113.863C80.8183 113.871 80.792 113.89 80.7573 113.914C80.7401 113.925 80.7102 113.945 80.6721 113.969C80.6526 113.981 80.6255 113.997 80.5927 114.016C80.5618 114.034 80.512 114.062 80.4493 114.093C80.4171 114.109 80.3748 114.13 80.3244 114.152C80.2757 114.173 80.2058 114.202 80.1201 114.232C80.0398 114.26 79.9068 114.303 79.7377 114.335C79.6507 114.352 79.537 114.37 79.403 114.38C79.2712 114.389 79.0928 114.392 78.8835 114.368C78.6755 114.344 78.3991 114.288 78.0958 114.156C77.7836 114.02 77.4477 113.805 77.1519 113.481C77.0472 113.359 76.8603 113.1 76.7786 112.963C76.7076 112.828 76.5914 112.554 76.5456 112.417C76.4377 112.063 76.4177 111.745 76.4266 111.503C76.4355 111.262 76.4744 111.061 76.5116 110.916C76.5495 110.768 76.5938 110.646 76.6312 110.554C76.6692 110.461 76.7071 110.382 76.739 110.321C76.7713 110.259 76.8019 110.206 76.8281 110.163C76.8792 110.079 76.9261 110.012 76.9596 109.966C76.9942 109.918 77.0251 109.879 77.0491 109.85C77.0957 109.792 77.1357 109.748 77.1606 109.721C77.2099 109.668 77.2507 109.628 77.2696 109.609C77.3097 109.571 77.3415 109.542 77.3512 109.534C77.3651 109.521 77.3753 109.512 77.3797 109.509L80.9999 113.732C81.0115 113.722 81.0277 113.708 81.0462 113.692C81.0606 113.679 81.0958 113.648 81.1383 113.607C81.1584 113.587 81.2001 113.546 81.25 113.492C81.2753 113.465 81.3156 113.42 81.3624 113.362C81.3865 113.333 81.4175 113.294 81.4522 113.246C81.4857 113.2 81.5327 113.133 81.5839 113.048C81.6101 113.005 81.6407 112.952 81.673 112.89C81.7049 112.829 81.7429 112.75 81.7809 112.657C81.8184 112.566 81.8627 112.443 81.9005 112.295C81.9378 112.15 81.9766 111.949 81.9856 111.708C81.9945 111.466 81.9745 111.148 81.8666 110.794C81.8208 110.657 81.7045 110.383 81.6335 110.248C81.5519 110.111 81.365 109.852 81.2603 109.73C80.9645 109.406 80.6285 109.191 80.3163 109.055C80.013 108.923 79.7366 108.867 79.5285 108.843C79.3192 108.818 79.1408 108.822 79.0089 108.831C78.8749 108.841 78.7612 108.858 78.6741 108.875C78.505 108.908 78.3719 108.951 78.2914 108.979C78.2057 109.009 78.1357 109.038 78.0868 109.059C78.0364 109.081 77.9939 109.102 77.9616 109.118C77.8985 109.149 77.8485 109.177 77.8172 109.195C77.784 109.215 77.7565 109.231 77.7365 109.244C77.6976 109.268 77.6667 109.288 77.6482 109.301C77.6112 109.326 77.582 109.347 77.5668 109.358C77.5341 109.382 77.5065 109.403 77.487 109.418C77.4677 109.433 77.4402 109.454 77.4087 109.48C77.3941 109.492 77.3657 109.516 77.3313 109.546C77.3142 109.561 77.2853 109.587 77.2505 109.62C77.2327 109.637 77.2081 109.661 77.1795 109.691C77.1528 109.718 77.1096 109.763 77.0592 109.822C77.0334 109.852 76.9997 109.893 76.9619 109.942C76.9255 109.99 76.8737 110.061 76.8172 110.15C76.7883 110.196 76.7542 110.253 76.7183 110.321C76.6828 110.387 76.6403 110.473 76.5981 110.575C76.5566 110.677 76.5072 110.813 76.4671 110.98C76.4275 111.144 76.3883 111.371 76.3894 111.644C76.3905 111.92 76.4332 112.27 76.5806 112.646C76.6408 112.788 76.7876 113.067 76.8743 113.202C76.9693 113.333 77.1799 113.575 77.2945 113.686C77.6074 113.972 77.9398 114.145 78.2246 114.248C78.5037 114.349 78.7522 114.389 78.936 114.404C79.1219 114.42 79.2801 114.415 79.3977 114.405C79.5173 114.395 79.6192 114.379 79.6981 114.364C79.8514 114.334 79.973 114.297 80.0481 114.272C80.1279 114.246 80.1933 114.22 80.2396 114.201C80.2873 114.181 80.3276 114.162 80.3586 114.148C80.419 114.119 80.4672 114.094 80.4976 114.077C80.5577 114.045 80.6041 114.017 80.627 114.003C80.6751 113.973 80.7126 113.948 80.7285 113.938C80.7485 113.924 80.7657 113.912 80.7781 113.904L77.6014 109.337ZM87.2296 121.537C90.3971 118.712 92.5629 114.749 94.0731 110.642C95.5933 106.507 96.5247 102.018 97.0995 97.9214C97.6758 93.8143 97.9035 90.029 97.9879 87.2742C98.0302 85.8944 98.0367 84.767 98.0324 83.9796C98.0303 83.5858 98.0255 83.2767 98.0212 83.0631C98.019 82.9563 98.0169 82.8734 98.0154 82.8157C98.0146 82.7868 98.0139 82.7643 98.0134 82.7482C98.0132 82.7401 98.013 82.7337 98.0128 82.7289C98.0127 82.7265 98.0127 82.7246 98.0126 82.723C98.0126 82.7222 98.0126 82.7213 98.0125 82.7209C98.0125 82.7202 98.0125 82.7195 95.2327 82.8139C92.453 82.9082 92.4529 82.9078 92.4529 82.9074C92.4529 82.9074 92.4529 82.9072 92.4529 82.9072C92.4529 82.9073 92.4529 82.9078 92.453 82.9087C92.453 82.9105 92.4531 82.9138 92.4533 82.9188C92.4536 82.9288 92.4541 82.9452 92.4547 82.9678C92.4559 83.013 92.4577 83.0831 92.4596 83.1767C92.4634 83.3639 92.4678 83.6451 92.4698 84.0094C92.4737 84.7384 92.4677 85.7986 92.4278 87.1039C92.3476 89.7194 92.1315 93.2947 91.5907 97.1485C91.0484 101.013 90.1895 105.085 88.8521 108.722C87.5047 112.387 85.7456 115.407 83.5271 117.385L87.2296 121.537ZM77.3785 109.507C75.806 110.853 74.7483 112.702 74.3851 114.74L79.8615 115.716C79.9991 114.944 80.3998 114.244 80.9956 113.734L77.3785 109.507ZM74.3487 115.034C74.2039 117.106 74.8706 119.152 76.2078 120.741L80.4637 117.159C80.0567 116.675 79.8538 116.052 79.8979 115.422L74.3487 115.034ZM76.2078 120.741C77.545 122.329 79.4477 123.336 81.5135 123.547L82.0785 118.013C81.4498 117.948 80.8707 117.642 80.4637 117.159L76.2078 120.741ZM81.5906 123.553C82.8035 123.643 84.0203 123.439 85.1372 122.957L82.9354 117.849C82.6413 117.976 82.3208 118.029 82.0014 118.006L81.5906 123.553ZM85.1372 122.957C86.2542 122.476 87.2384 121.732 88.006 120.788L83.6909 117.278C83.4887 117.526 83.2295 117.722 82.9354 117.849L85.1372 122.957ZM83.8803 120.998L83.8859 121.004L87.8221 117.073L87.8165 117.068L83.8803 120.998ZM43.8833 89.2038L46.3754 96.5466L51.643 94.7588L49.1509 87.416L43.8833 89.2038ZM46.3852 96.5751C49.5499 105.578 47.9104 108.887 47.2316 109.802L51.6991 113.116C53.9463 110.087 55.0937 104.574 51.6332 94.7303L46.3852 96.5751ZM47.6431 109.358L45.9464 110.829L49.591 115.032L51.2876 113.561L47.6431 109.358ZM45.663 111.113C44.7152 112.212 44.0897 113.551 43.8557 114.983L49.3457 115.88C49.4141 115.461 49.5971 115.069 49.8744 114.748L45.663 111.113ZM43.8557 114.983C43.6218 116.414 43.7885 117.883 44.3375 119.226L49.4866 117.121C49.326 116.728 49.2772 116.299 49.3457 115.88L43.8557 114.983ZM44.4491 119.466C46.5783 123.524 51.5859 125.1 55.6552 123.001L53.1048 118.057C51.7505 118.756 50.0828 118.23 49.375 116.881L44.4491 119.466ZM55.4818 123.083C56.5846 122.607 57.5803 121.915 58.4099 121.046L54.3876 117.204C54.0733 117.533 53.696 117.795 53.2782 117.975L55.4818 123.083ZM58.4099 121.046C59.2395 120.178 59.8859 119.151 60.3108 118.028L55.1078 116.06C54.9468 116.486 54.7019 116.875 54.3876 117.204L58.4099 121.046ZM60.4367 117.59C60.42 117.673 60.4014 117.745 60.3844 117.804C60.3673 117.864 60.3506 117.914 60.3369 117.952C60.3232 117.991 60.311 118.022 60.3027 118.043C60.2946 118.064 60.2883 118.079 60.2867 118.082C60.286 118.084 60.2853 118.086 60.2864 118.083C60.2869 118.082 60.2891 118.077 60.2915 118.071C60.2961 118.06 60.3065 118.035 60.3187 118.004C60.331 117.973 60.3489 117.926 60.3683 117.869C60.3877 117.812 60.4121 117.734 60.4355 117.641L55.0388 116.292C55.0608 116.204 55.0835 116.132 55.1008 116.081C55.1182 116.03 55.1339 115.989 55.1437 115.964C55.1535 115.939 55.1613 115.92 55.1632 115.916C55.1643 115.913 55.1651 115.911 55.1642 115.913C55.1639 115.914 55.1619 115.919 55.1597 115.924C55.1527 115.941 55.1241 116.008 55.0936 116.094C55.0626 116.182 55.0173 116.322 54.982 116.499L60.4367 117.59ZM60.357 117.9C60.69 116.966 60.8419 115.975 60.8028 114.985L55.2444 115.204C55.2554 115.482 55.2126 115.765 55.1172 116.032L60.357 117.9ZM14.3273 91.066C13.4523 94.0418 13.7121 97.2365 15.0566 100.032L20.0696 97.6207C19.322 96.0664 19.1775 94.29 19.6641 92.6352L14.3273 91.066ZM14.9707 99.834C15.7398 101.813 17.2597 103.407 19.1992 104.27L21.4607 99.1879C20.862 98.9215 20.3929 98.4293 20.1555 97.8185L14.9707 99.834ZM19.1992 104.27C21.1386 105.133 23.3406 105.195 25.3253 104.442L23.3517 99.2408C22.7391 99.4733 22.0594 99.4543 21.4607 99.1879L19.1992 104.27ZM25.4959 104.37C27.9826 103.232 28.8721 100.826 29.1164 98.9135C29.3657 96.9623 29.062 94.879 28.5633 93.1924L23.2289 94.7699C23.5757 95.9425 23.724 97.2261 23.5985 98.2085C23.5372 98.6882 23.4245 98.9868 23.3314 99.1477C23.2551 99.2797 23.2074 99.3001 23.1811 99.3121L25.4959 104.37ZM27.8882 95.3643C28.8754 94.2019 30.1161 93.2814 31.5148 92.6736L29.298 87.5717C27.1189 88.5185 25.1861 89.9526 23.6481 91.7635L27.8882 95.3643ZM31.5148 92.6736C32.9135 92.0659 34.433 91.7871 35.9565 91.8587L36.2176 86.3021C33.8443 86.1905 31.4771 86.6249 29.298 87.5717L31.5148 92.6736ZM36.0571 91.8616C36.3141 91.8643 36.5689 91.9029 36.8175 91.9769L38.4049 86.6455C37.6633 86.4247 36.8945 86.3075 36.1169 86.2992L36.0571 91.8616ZM36.6684 91.9279C39.1672 92.8282 41.9047 92.8112 44.3921 91.8799L42.4417 86.6703C41.1896 87.1391 39.8117 87.1477 38.554 86.6945L36.6684 91.9279ZM44.3921 91.8799C46.8795 90.9487 48.9551 89.1638 50.2483 86.8438L45.3894 84.1354C44.7385 85.3031 43.6937 86.2016 42.4417 86.6703L44.3921 91.8799ZM111.438 50.8324L110.615 66.4999L116.17 66.7918L116.993 51.1243L111.438 50.8324ZM113.392 66.6458C110.615 66.4879 110.615 66.4883 110.615 66.4888C110.615 66.489 110.615 66.4895 110.615 66.4899C110.615 66.4908 110.615 66.4918 110.615 66.4929C110.615 66.4952 110.615 66.4981 110.615 66.5017C110.614 66.5088 110.614 66.5183 110.613 66.5303C110.612 66.5542 110.61 66.5877 110.608 66.6303C110.604 66.7154 110.599 66.8368 110.593 66.99C110.582 67.2962 110.57 67.7309 110.564 68.258C110.553 69.3071 110.569 70.7457 110.68 72.2769C110.79 73.7905 110.999 75.4878 111.406 77.0194C111.78 78.4301 112.454 80.2409 113.858 81.412L117.421 77.14C117.453 77.1667 117.363 77.1003 117.215 76.8052C117.071 76.5204 116.922 76.1192 116.782 75.5933C116.502 74.5354 116.326 73.2227 116.228 71.8739C116.132 70.5427 116.117 69.2665 116.127 68.3165C116.132 67.844 116.143 67.458 116.152 67.1934C116.157 67.0612 116.162 66.9597 116.165 66.8932C116.166 66.86 116.168 66.8356 116.168 66.8205C116.169 66.8129 116.169 66.8077 116.169 66.8049C116.169 66.8035 116.169 66.8027 116.169 66.8025C116.169 66.8024 116.169 66.8025 116.169 66.8027C116.169 66.8028 116.169 66.8031 116.169 66.8031C116.169 66.8034 116.169 66.8038 113.392 66.6458ZM113.369 80.8823C115.705 84.1838 116.783 88.2117 116.408 92.2384L121.947 92.7533C122.444 87.4049 121.013 82.0549 117.91 77.6697L113.369 80.8823ZM119.178 92.4959C116.408 92.7537 116.408 92.7537 116.408 92.7538C116.408 92.7539 116.408 92.7541 116.408 92.7544C116.408 92.7548 116.408 92.7555 116.408 92.7565C116.409 92.7584 116.409 92.7613 116.409 92.7651C116.41 92.7728 116.411 92.7843 116.412 92.7994C116.415 92.8298 116.419 92.875 116.425 92.9343C116.436 93.0529 116.452 93.2277 116.473 93.4524C116.515 93.9019 116.575 94.5511 116.648 95.3496C116.794 96.9467 116.995 99.1406 117.209 101.528C117.638 106.313 118.12 111.845 118.342 114.922L123.89 114.522C123.664 111.388 123.178 105.807 122.749 101.031C122.535 98.6388 122.334 96.4408 122.187 94.841C122.114 94.041 122.054 93.3905 122.012 92.9399C121.991 92.7146 121.975 92.5392 121.964 92.4202C121.958 92.3606 121.954 92.3152 121.951 92.2846C121.95 92.2693 121.949 92.2577 121.948 92.2499C121.948 92.246 121.947 92.243 121.947 92.2411C121.947 92.2401 121.947 92.2393 121.947 92.2388C121.947 92.2386 121.947 92.2384 121.947 92.2383C121.947 92.2381 121.947 92.2381 119.178 92.4959ZM102.972 26.3228C106.44 17.5153 109.38 16.9056 110.212 16.9138C110.797 16.9196 111.385 17.1733 111.916 17.5535C112.168 17.7344 112.369 17.9161 112.5 18.0469C112.564 18.111 112.609 18.1595 112.631 18.1846C112.642 18.1971 112.648 18.2035 112.647 18.2028C112.647 18.2024 112.645 18.2003 112.642 18.1962C112.64 18.1941 112.638 18.1916 112.635 18.1886C112.634 18.1871 112.633 18.1854 112.631 18.1836C112.631 18.1828 112.63 18.1813 112.629 18.1809C112.628 18.1794 112.627 18.178 114.791 16.431C116.955 14.6841 116.954 14.6825 116.953 14.6809C116.952 14.6803 116.951 14.6787 116.95 14.6776C116.948 14.6752 116.946 14.6728 116.944 14.6702C116.94 14.665 116.935 14.6592 116.93 14.6528C116.919 14.6401 116.907 14.6252 116.893 14.6082C116.864 14.5742 116.827 14.5318 116.783 14.4821C116.694 14.3829 116.574 14.2536 116.424 14.1044C116.127 13.8084 115.699 13.4205 115.153 13.0301C114.088 12.2678 112.4 11.3723 110.267 11.3513C105.664 11.306 101.4 15.1325 97.7957 24.2844L102.972 26.3228ZM112.626 18.1772C114.563 20.5783 115.179 22.4925 115.229 23.95C115.279 25.3988 114.781 26.7436 113.838 28.0374C111.855 30.7601 108.252 32.7748 105.779 33.8868L108.06 38.9602C110.697 37.7747 115.45 35.2725 118.334 31.3129C119.826 29.2657 120.89 26.7281 120.789 23.7598C120.687 20.8004 119.439 17.7631 116.956 14.6848L112.626 18.1772ZM105.86 33.8519C105.594 33.9615 105.309 34.0159 105.021 34.0117L104.941 39.5739C105.983 39.5889 107.016 39.392 107.98 38.9951L105.86 33.8519ZM105.021 34.0117C104.733 34.0076 104.45 33.945 104.187 33.8278L101.921 38.9079C102.872 39.3323 103.899 39.5589 104.941 39.5739L105.021 34.0117ZM104.09 33.7869C101.854 32.8887 99.0403 32.5494 96.3039 32.4588C93.511 32.3664 90.5402 32.5279 87.8524 32.7753C85.1565 33.0234 82.6966 33.3627 80.9128 33.6393C80.0195 33.7778 79.2922 33.9011 78.7855 33.9904C78.532 34.035 78.3336 34.0712 78.1968 34.0965C78.1284 34.1091 78.0755 34.1191 78.0388 34.126C78.0204 34.1295 78.0061 34.1322 77.996 34.1341C77.991 34.1351 77.987 34.1359 77.984 34.1364C77.9825 34.1367 77.9813 34.137 77.9804 34.1371C77.9799 34.1372 77.9794 34.1373 77.9791 34.1374C77.9787 34.1375 77.9783 34.1375 78.5054 36.8685C79.0325 39.5995 79.0322 39.5995 79.0321 39.5995C79.0321 39.5995 79.032 39.5996 79.032 39.5996C79.0321 39.5995 79.0325 39.5995 79.0332 39.5993C79.0344 39.5991 79.0367 39.5987 79.0401 39.598C79.0468 39.5967 79.0576 39.5947 79.0724 39.5919C79.1021 39.5863 79.1478 39.5777 79.2088 39.5664C79.3307 39.5438 79.5135 39.5105 79.7504 39.4688C80.2243 39.3853 80.9138 39.2683 81.7652 39.1363C83.4708 38.8719 85.8119 38.5493 88.3623 38.3146C90.9209 38.0791 93.6419 37.9365 96.1199 38.0185C98.6542 38.1024 100.691 38.416 102.017 38.9488L104.09 33.7869ZM78.2469 34.0992C67.7267 35.0813 61.7048 33.3401 58.4307 31.616C56.7881 30.7511 55.79 29.8668 55.2319 29.2643C54.951 28.9611 54.7766 28.7239 54.6854 28.5889C54.6398 28.5214 54.6148 28.4791 54.6077 28.4668C54.6041 28.4607 54.605 28.462 54.61 28.4714C54.6126 28.476 54.6161 28.4827 54.6206 28.4915C54.6229 28.4959 54.6254 28.5008 54.6281 28.5063C54.6295 28.509 54.6309 28.5119 54.6324 28.5148C54.6331 28.5163 54.6343 28.5187 54.6347 28.5194C54.6359 28.5218 54.6371 28.5242 52.1436 29.7565C49.6501 30.9889 49.6514 30.9914 49.6526 30.9939C49.653 30.9948 49.6543 30.9973 49.6552 30.9991C49.657 31.0026 49.6588 31.0063 49.6607 31.0101C49.6646 31.0178 49.6688 31.026 49.6733 31.0348C49.6823 31.0524 49.6927 31.0722 49.7044 31.0941C49.7279 31.138 49.7568 31.1904 49.7917 31.2508C49.8615 31.3715 49.9551 31.5239 50.0757 31.7026C50.3172 32.06 50.6668 32.5219 51.1511 33.0447C52.1234 34.0942 53.6209 35.3702 55.8389 36.5381C60.2858 38.8797 67.4448 40.6945 78.7639 39.6378L78.2469 34.0992ZM54.6088 28.4686C51.3023 22.1401 48.5108 15.5558 46.2612 8.77929L40.9818 10.5319C43.3254 17.5918 46.2337 24.4515 49.6784 31.0445L54.6088 28.4686ZM46.2831 8.84821C45.946 7.73708 45.3683 6.71383 44.591 5.85124L40.4586 9.57506C40.6889 9.83062 40.86 10.1338 40.9599 10.463L46.2831 8.84821ZM44.591 5.85124C43.8137 4.98865 42.8559 4.3079 41.7858 3.85739L39.6275 8.98435C39.9445 9.11782 40.2283 9.31951 40.4586 9.57506L44.591 5.85124ZM41.5953 3.78529C36.7355 2.14665 31.6868 1.13359 26.5711 0.77054L26.1773 6.31932C30.822 6.64893 35.4057 7.56871 39.8179 9.05644L41.5953 3.78529ZM26.6913 0.781699C21.6792 0.206509 18.369 1.50087 16.3089 3.43764C15.3248 4.36287 14.7278 5.34271 14.3734 6.10986C14.196 6.49389 14.0768 6.82987 13.9984 7.08836C13.9591 7.21795 13.9296 7.32921 13.908 7.41865C13.8972 7.46342 13.8883 7.50285 13.8811 7.53654C13.8775 7.55338 13.8743 7.5688 13.8715 7.58275C13.8701 7.58972 13.8688 7.59633 13.8676 7.60256C13.867 7.60568 13.8664 7.6087 13.8659 7.61163C13.8656 7.61309 13.8652 7.61522 13.865 7.61595C13.8647 7.61805 13.8643 7.62013 16.5977 8.13419C19.3312 8.64824 19.3308 8.65028 19.3304 8.65229C19.3303 8.65294 19.3299 8.65494 19.3296 8.65623C19.3292 8.65882 19.3287 8.66134 19.3282 8.66378C19.3272 8.66866 19.3263 8.67324 19.3255 8.67753C19.3238 8.68611 19.3222 8.69353 19.3209 8.69982C19.3182 8.71241 19.3163 8.72058 19.3153 8.72464C19.3133 8.73268 19.315 8.7248 19.3215 8.70349C19.3346 8.66016 19.3658 8.5672 19.4233 8.44275C19.5387 8.19297 19.7498 7.83776 20.1192 7.49051C20.7661 6.88233 22.3441 5.88206 26.0571 6.30816L26.6913 0.781699ZM14.005 7.12737C13.4769 8.48727 12.8902 8.86567 12.7121 8.96287C12.597 9.02571 12.5227 9.04013 12.5153 9.04148C12.511 9.04227 12.5242 9.03953 12.5592 9.0376C12.5769 9.03663 12.6004 9.03585 12.6305 9.03586C12.6456 9.03587 12.6623 9.03607 12.6809 9.03656C12.6902 9.0368 12.6999 9.03711 12.7101 9.0375C12.7152 9.0377 12.7204 9.03792 12.7257 9.03816C12.7284 9.03828 12.7311 9.0384 12.7338 9.03853C12.7352 9.0386 12.7372 9.0387 12.7379 9.03873C12.74 9.03883 12.7421 9.03894 12.6009 11.8167C12.4597 14.5945 12.4618 14.5946 12.4639 14.5947C12.4646 14.5947 12.4668 14.5949 12.4682 14.5949C12.4711 14.5951 12.474 14.5952 12.477 14.5953C12.4829 14.5956 12.489 14.5959 12.4953 14.5961C12.508 14.5966 12.5213 14.597 12.5354 14.5974C12.5636 14.5981 12.5946 14.5986 12.6285 14.5986C12.6962 14.5986 12.7753 14.5969 12.8647 14.5919C13.0431 14.5821 13.2645 14.5596 13.5193 14.5129C14.0301 14.4191 14.6776 14.2274 15.3767 13.8459C16.8271 13.0544 18.2388 11.5916 19.1905 9.141L14.005 7.12737ZM12.5904 9.03537L7.40597 9.05484L7.42686 14.6175L12.6113 14.5981L12.5904 9.03537ZM7.2602 9.05921C5.16764 9.17693 3.39289 9.8355 2.1281 11.1417C0.882642 12.428 0.471533 13.9928 0.380823 15.253C0.290906 16.5021 0.496311 17.6533 0.689614 18.4315C0.789627 18.8342 0.895066 19.1709 0.978195 19.4139C1.01998 19.536 1.05674 19.6363 1.08524 19.7113C1.09951 19.7489 1.11177 19.7803 1.12162 19.8051C1.12655 19.8175 1.13088 19.8283 1.13456 19.8374C1.13641 19.842 1.13809 19.8461 1.1396 19.8498C1.14036 19.8516 1.14108 19.8534 1.14175 19.855C1.14209 19.8559 1.14256 19.857 1.14273 19.8574C1.14319 19.8585 1.14365 19.8596 3.71441 18.798C6.28518 17.7363 6.28562 17.7373 6.28604 17.7383C6.28616 17.7387 6.28658 17.7397 6.28683 17.7403C6.28734 17.7415 6.28781 17.7427 6.28824 17.7437C6.2891 17.7458 6.28981 17.7476 6.29036 17.7489C6.29148 17.7517 6.292 17.753 6.29196 17.7529C6.29189 17.7527 6.28963 17.747 6.2855 17.7362C6.27722 17.7143 6.26169 17.6724 6.2415 17.6134C6.20067 17.4941 6.14338 17.3123 6.08829 17.0905C5.97138 16.6199 5.89709 16.0985 5.9292 15.6524C5.96052 15.2172 6.07318 15.0642 6.12445 15.0113C6.15639 14.9783 6.45132 14.6762 7.57263 14.6132L7.2602 9.05921ZM0.981783 18.2796C0.463387 21.0122 0.869989 23.3808 1.91149 25.3452C2.92733 27.2611 4.4481 28.6094 5.8892 29.5397C7.33173 30.4709 8.79979 31.052 9.87873 31.3998C10.4253 31.576 10.8903 31.6981 11.2275 31.7778C11.3965 31.8178 11.5346 31.8474 11.6362 31.868C11.6871 31.8783 11.7289 31.8864 11.7609 31.8924C11.777 31.8954 11.7906 31.8979 11.8017 31.8999C11.8072 31.9009 11.8122 31.9018 11.8165 31.9025C11.8186 31.9029 11.8206 31.9033 11.8224 31.9036C11.8233 31.9038 11.8246 31.904 11.825 31.9041C11.8262 31.9043 11.8274 31.9045 12.3033 29.1641C12.7791 26.4238 12.7802 26.4239 12.7813 26.4241C12.7816 26.4242 12.7826 26.4244 12.7832 26.4245C12.7844 26.4247 12.7855 26.4249 12.7864 26.425C12.7882 26.4253 12.7894 26.4256 12.7901 26.4257C12.7914 26.4259 12.7904 26.4257 12.7871 26.4251C12.7806 26.4239 12.7652 26.421 12.7416 26.4162C12.6943 26.4066 12.6145 26.3897 12.5073 26.3643C12.292 26.3134 11.9714 26.2298 11.5854 26.1054C10.7993 25.852 9.81451 25.4525 8.90608 24.8661C7.99623 24.2788 7.26791 23.5726 6.82615 22.7394C6.41004 21.9546 6.1505 20.8795 6.44705 19.3164L0.981783 18.2796ZM12.2377 31.9447C14.8628 32.0066 17.3691 33.0515 19.2608 34.8726L23.1187 30.8651C20.2232 28.0776 16.387 26.4783 12.3689 26.3835L12.2377 31.9447ZM18.8795 34.4176C23.0115 40.5815 25.6473 47.6249 26.5769 54.9871L32.0958 54.2902C31.0577 46.0688 28.1143 38.2033 23.5 31.3202L18.8795 34.4176ZM26.5597 54.7996C26.8776 60.2834 28.1819 64.119 29.5031 66.656C30.1612 67.9197 30.8157 68.8461 31.3373 69.4828C31.5977 69.8008 31.8243 70.0456 32.0006 70.2236C32.0887 70.3125 32.1642 70.3847 32.2251 70.4409C32.2556 70.469 32.2824 70.4931 32.3052 70.5133C32.3167 70.5234 32.3271 70.5326 32.3366 70.5407C32.3413 70.5448 32.3458 70.5487 32.35 70.5523C32.3521 70.5541 32.3541 70.5558 32.3561 70.5575C32.3571 70.5583 32.3585 70.5596 32.359 70.56C32.3604 70.5612 32.3618 70.5624 34.1593 68.4398C35.9567 66.3172 35.9581 66.3184 35.9594 66.3196C35.9598 66.3199 35.9612 66.3211 35.962 66.3218C35.9638 66.3233 35.9654 66.3247 35.967 66.326C35.9702 66.3288 35.9731 66.3313 35.9758 66.3336C35.9812 66.3383 35.9856 66.3421 35.989 66.3451C35.9958 66.3512 35.9988 66.3539 35.9981 66.3533C35.9967 66.352 35.9808 66.3372 35.9521 66.3083C35.8947 66.2504 35.7861 66.1355 35.6407 65.958C35.3505 65.6037 34.9104 64.9958 34.4369 64.0865C33.4948 62.2776 32.3876 59.2126 32.1131 54.4777L26.5597 54.7996ZM32.2225 70.436C34.0089 72.1692 34.6342 73.383 34.827 74.0859C34.9909 74.6837 34.8742 75.0017 34.7376 75.2347C34.5485 75.5573 34.2021 75.8749 33.7843 76.1404C33.591 76.2632 33.4176 76.3524 33.3004 76.4076C33.2429 76.4347 33.202 76.4521 33.1828 76.46C33.1733 76.464 33.1694 76.4654 33.1719 76.4645C33.1731 76.464 33.1759 76.4629 33.1805 76.4612C33.1827 76.4603 33.1854 76.4593 33.1885 76.4582C33.1901 76.4576 33.1918 76.457 33.1935 76.4563C33.1944 76.456 33.1959 76.4554 33.1963 76.4553C33.1977 76.4548 33.1992 76.4542 34.1593 79.0646C35.1193 81.6751 35.1209 81.6745 35.1224 81.6739C35.123 81.6737 35.1246 81.6731 35.1257 81.6727C35.128 81.6719 35.1304 81.671 35.1329 81.67C35.1379 81.6681 35.1435 81.6661 35.1495 81.6638C35.1616 81.6592 35.1757 81.6538 35.1917 81.6475C35.2238 81.6351 35.2635 81.6192 35.3102 81.5999C35.4035 81.5613 35.5254 81.5084 35.6695 81.4406C35.9555 81.306 36.3405 81.1068 36.7675 80.8355C37.5905 80.3126 38.733 79.4186 39.5365 78.048C40.3925 76.5879 40.7721 74.7312 40.1916 72.6146C39.6399 70.6031 38.28 68.5626 36.0961 66.4436L32.2225 70.436ZM33.2121 76.4495C21.252 80.7811 15.8688 85.9689 14.399 91.1113L19.7476 92.64C20.464 90.1335 23.6585 85.8258 35.1064 81.6798L33.2121 76.4495ZM118.349 115.03C118.442 115.863 118.345 116.354 118.247 116.62C118.157 116.863 118.037 117.005 117.888 117.117C117.513 117.399 116.714 117.64 115.496 117.562L115.138 123.113C116.985 123.232 119.343 122.982 121.229 121.565C123.324 119.991 124.218 117.465 123.877 114.413L118.349 115.03ZM115.334 117.556C114.68 117.552 114.053 117.289 113.591 116.825L109.647 120.748C111.145 122.253 113.176 123.105 115.299 123.119L115.334 117.556ZM113.591 116.825C113.129 116.361 112.87 115.733 112.869 115.078L107.306 115.083C107.309 117.207 108.15 119.243 109.647 120.748L113.591 116.825ZM112.839 115.486C113.021 114.258 113.301 113.048 113.677 111.869L108.378 110.176C107.91 111.645 107.561 113.149 107.336 114.675L112.839 115.486ZM118.338 114.914L118.414 115.999L123.963 115.614L123.888 114.53L118.338 114.914ZM113.278 113.529C113.84 111.652 114.668 108.253 114.701 104.331C114.735 100.411 113.975 95.7806 111.166 91.6541L106.568 94.7846C108.534 97.6728 109.167 101.066 109.139 104.283C109.111 107.497 108.425 110.346 107.949 111.932L113.278 113.529ZM111.155 91.6381C110.592 90.8227 109.874 90.1258 109.042 89.5866L106.016 94.2543C106.238 94.3979 106.429 94.5835 106.579 94.8006L111.155 91.6381ZM109.056 89.5955C107.522 88.5886 103.832 86.1001 99.8853 82.9566C95.8926 79.7763 91.8388 76.0818 89.4206 72.6763L84.885 75.8969C87.7737 79.9649 92.3365 84.0555 96.4195 87.3077C100.549 90.5969 104.393 93.1885 106.002 94.2454L109.056 89.5955ZM89.4016 72.6498C88.8016 71.8255 88.0293 71.1418 87.1383 70.6462L84.4342 75.5074C84.6192 75.6103 84.7795 75.7523 84.9041 75.9234L89.4016 72.6498ZM87.1383 70.6462C86.2474 70.1506 85.2591 69.855 84.2424 69.78L83.833 75.3276C84.0441 75.3432 84.2492 75.4045 84.4342 75.5074L87.1383 70.6462ZM84.2805 69.783C80.6937 69.4688 73.1819 69.1399 65.4589 70.8856C57.7564 72.6267 49.3803 76.5482 44.8438 85.1081L49.759 87.713C53.2161 81.1896 59.7482 77.8795 66.6854 76.3115C73.6021 74.748 80.4616 75.0325 83.7949 75.3245L84.2805 69.783ZM60.6451 116.024C62.5229 110.727 63.1185 103.962 62.6522 97.3621C62.1855 90.7558 60.6339 84.0167 57.9689 78.7771L53.0107 81.2991C55.2456 85.6931 56.6724 91.6545 57.1033 97.7541C57.5347 103.86 56.9472 109.807 55.4021 114.165L60.6451 116.024Z" fill="#A41D2D"/>
</svg>
