<svg width="242" height="242" viewBox="0 0 242 242" fill="none" xmlns="http://www.w3.org/2000/svg">
<path d="M163.91 66C161.845 66 160.242 67.5983 160.242 69.5974C160.242 71.5964 161.845 73.1947 163.91 73.1947C165.974 73.1947 167.578 71.5964 167.578 69.5974C167.578 67.5983 165.974 66 163.91 66ZM123.467 72.6676C125.07 76.5152 127.62 77.0471 131.021 78.6843C128.3 83.7804 125.386 91.0917 120.455 93.0835C104.739 99.4232 96.4804 107.245 93.1769 117.058C89.9949 126.531 91.4766 138.239 96.4075 152.376C111.419 153.566 127.329 154.61 135.126 153.056C134.81 151.987 133.717 151.234 133.037 150.87C126.114 148.489 122.058 148.222 115.67 147.955L115.937 145.623C116.471 140.862 116.034 134.862 114.066 130.733C113.07 128.668 111.759 127.114 110.059 126.167C108.358 125.219 106.221 124.782 103.16 125.365L102.383 121.041C105.662 120.458 109.524 120.896 112.196 122.353C114.844 123.835 116.738 126.191 118.001 128.839C120.212 133.429 120.698 138.943 120.406 143.85C122.835 143.996 124.997 144.238 126.916 144.554C131.58 137.097 135.903 129.883 136.51 122.523C133.158 121.551 128.64 119.924 128.179 116.596C127.523 111.835 129.053 105.666 132.867 103.115C132.624 109.868 131.822 113.779 132.308 115.187C133.717 117.835 139.668 118.88 142.049 119.414V119.438C146.275 120.604 149.797 121.139 150.502 125.657C154.922 118.491 147.004 114.726 141.709 112.418L141.684 111.01C141.611 105.301 143.02 101.439 144.963 98.1115C146.907 94.8081 149.263 92.039 151.497 87.6182V87.5939C149.214 87.2781 146.785 87.5696 144.915 87.9097C146.299 83.076 150.55 82.1456 154.291 83.999C155.724 81.9829 157.546 79.4251 160.339 76.7217C157.254 74.4408 155.505 71.7665 155.943 68.4824C149.141 67.6566 142 67.4015 136.851 70.8726L135.879 69.969C132.065 65.6284 121.086 66.9813 123.467 72.6676ZM139.96 71.6547C140.931 73.5785 143.579 74.8003 147.052 75.0262C145.109 76.6026 142.024 77.8001 139.692 76.299C137.919 75.1549 138.794 73.1243 139.96 71.6547ZM90.0435 146.886C86.4971 147.663 80.6262 148.586 77.9883 150.772C75.9236 152.57 74.3375 155.582 74.0557 158.4C73.7715 161.217 74.5391 163.646 77.177 165.395C87.7602 172.415 98.6907 171.613 108.504 168.82C118.317 166.002 126.819 160.901 137.506 163.282C139.547 163.889 141.32 164.861 141.028 167.144C140.931 167.824 140.664 168.31 140.373 168.723C138.016 171.346 132.867 173.022 132.211 173.945C130.657 176.18 140.518 174.625 143.142 172.099C144.162 171.079 145.109 168.942 145.303 166.925C145.498 164.909 144.988 163.209 144.113 162.48C141.393 160.148 138.259 158.813 134.446 158.813C130.632 158.788 126.187 159.225 121.451 160.391C111.953 162.723 101.144 167.071 90.505 164.909C86.3757 164.083 83.8495 163.258 82.3022 161.29C81.5201 160.319 81.2359 158.715 81.6998 157.549C83.5094 153.857 88.5375 153.226 91.6466 152.57C91.0637 150.821 90.5293 148.586 90.0435 146.886Z" fill="#D59C64"/>
<circle cx="120.923" cy="120.923" r="91.65" transform="rotate(73.7201 120.923 120.923)" stroke="#D59C64" stroke-width="11.7" stroke-linecap="round" stroke-linejoin="round" stroke-dasharray="52.65 52.65"/>
</svg>
