<svg width="106" height="124" viewBox="0 0 106 124" fill="none" xmlns="http://www.w3.org/2000/svg">
<path d="M101.406 0.7724C99.0775 0.7724 97.2695 2.57498 97.2695 4.82957C97.2695 7.08416 99.0775 8.88673 101.406 8.88673C103.735 8.88673 105.543 7.08416 105.543 4.82957C105.543 2.57498 103.735 0.7724 101.406 0.7724ZM55.7938 8.29227C57.6018 12.6316 60.4783 13.2315 64.3136 15.078C61.2454 20.8254 57.958 29.0712 52.3968 31.3176C34.6724 38.4676 25.3582 47.2887 21.6325 58.3562C18.0438 69.0402 19.7149 82.2445 25.276 98.1882C42.206 99.5306 60.1496 100.709 68.9433 98.9553C68.5872 97.7499 67.3544 96.9007 66.5873 96.4897C58.7798 93.8051 54.2049 93.5037 47.0001 93.2024L47.3014 90.5725C47.9041 85.2031 47.411 78.4366 45.192 73.7795C44.0688 71.4509 42.5895 69.6976 40.6719 68.6293C38.7543 67.5609 36.3435 67.0678 32.8918 67.7252L32.0151 62.849C35.7134 62.1915 40.0692 62.6846 43.0826 64.3283C46.0687 65.9994 48.2054 68.6566 49.63 71.6427C52.1229 76.8203 52.6708 83.0389 52.3421 88.5727C55.0815 88.737 57.5197 89.011 59.6839 89.3671C64.9437 80.9569 69.8199 72.8207 70.5048 64.52C66.7243 63.4242 61.6289 61.5888 61.1084 57.8357C60.3687 52.4663 62.0946 45.5081 66.3956 42.6316C66.1216 50.2474 65.2176 54.6579 65.7655 56.2468C67.3544 59.2328 74.0661 60.4108 76.7508 61.0135V61.0409C81.5175 62.3559 85.4897 62.9585 86.2842 68.054C91.27 59.9725 82.3393 55.7263 76.3673 53.1238L76.3399 51.5349C76.2577 45.0971 77.8466 40.7414 80.0382 36.9883C82.2297 33.2626 84.887 30.1396 87.4074 25.1538V25.1264C84.8323 24.7702 82.0928 25.099 79.9834 25.4825C81.5449 20.0309 86.339 18.9817 90.5578 21.0719C92.1741 18.7982 94.2287 15.9135 97.3791 12.8645C93.8999 10.2921 91.9275 7.27592 92.4206 3.57215C84.7501 2.64072 76.696 2.35308 70.8883 6.26779L69.7925 5.24871C65.4915 0.353259 53.1091 1.87915 55.7938 8.29227ZM74.3948 7.1499C75.4906 9.31957 78.4767 10.6975 82.3941 10.9523C80.2025 12.7302 76.7234 14.0808 74.0935 12.3878C72.0937 11.0975 73.0799 8.80729 74.3948 7.1499ZM18.0986 91.997C14.099 92.8736 7.47764 93.9146 4.50257 96.3802C2.17401 98.4074 0.385137 101.804 0.0673577 104.982C-0.253161 108.16 0.612514 110.899 3.58759 112.872C15.5235 120.789 27.8511 119.885 38.9186 116.734C49.9861 113.557 59.5743 107.804 71.628 110.488C73.9291 111.173 75.9289 112.269 75.6002 114.844C75.4906 115.611 75.1893 116.159 74.8606 116.625C72.2033 119.584 66.3956 121.474 65.6559 122.515C63.9026 125.035 75.0249 123.282 77.9836 120.433C79.1341 119.282 80.2025 116.871 80.4217 114.598C80.6408 112.324 80.0656 110.406 79.0794 109.584C76.0111 106.955 72.4772 105.448 68.1762 105.448C63.8753 105.42 58.862 105.914 53.52 107.229C42.8087 109.858 30.618 114.762 18.6191 112.324C13.962 111.392 11.1129 110.461 9.36788 108.242C8.48577 107.146 8.16525 105.338 8.68849 104.023C10.7294 99.8593 16.4001 99.147 19.9067 98.4074C19.2492 96.435 18.6465 93.9146 18.0986 91.997Z" fill="#D59C64"/>
</svg>
