<svg width="132" height="123" viewBox="0 0 132 123" fill="none" xmlns="http://www.w3.org/2000/svg">
<path d="M111.987 0.0829825C112.177 0.0911747 112.324 0.147154 112.424 0.25693C120.113 8.68288 118.91 16.2418 117.438 24.1336C116.791 25.4542 116.214 26.5369 115.584 27.4296C114.198 29.3925 112.486 30.8368 108.3 32.9296L110.498 37.3255C115.05 35.0492 117.707 32.9435 119.599 30.2639C119.786 29.9969 119.967 29.7256 120.142 29.4501C126.554 37.5434 130.42 47.3678 131.109 58.3112C128.249 55.2866 125.56 54.3836 122.135 53.7061C121.137 48.962 119.112 44.1644 115.734 39.6611L111.802 42.6092C117.904 50.7449 118.889 59.7986 117.366 67.4141C115.843 75.0298 111.497 81.0306 108.3 82.6289C103.491 85.0333 100.015 88.5508 97.2844 91.2815C95.919 92.6469 94.7304 93.8175 93.7743 94.5488C93.7265 94.5851 93.6834 94.6144 93.6373 94.6485C93.4046 93.3222 93.0646 91.9489 92.6351 90.5316C91.1842 85.7436 88.6422 80.4094 85.291 74.8239L81.0764 77.3531C84.279 82.6906 86.6523 87.7332 87.9322 91.9565C89.2121 96.1802 89.2943 99.5256 88.5483 101.391C87.8019 103.256 86.5767 104.237 83.1021 104.353C80.0759 104.454 75.5208 103.536 69.4645 101.185C82.601 96.5308 79.3307 88.3665 78.8146 80.4577C74.4454 89.196 70.0762 89.196 65.7071 89.196C61.3379 89.196 56.9687 89.196 52.5995 80.4577C52.0834 88.3665 48.8131 96.5305 61.9496 101.185C55.8933 103.536 51.3379 104.454 48.312 104.353C44.8374 104.237 43.6122 103.256 42.8658 101.391C42.1198 99.5259 42.2023 96.1802 43.4819 91.9565C44.7618 87.7332 47.1351 82.6906 50.3377 77.3531L46.1231 74.8239C42.7719 80.4094 40.2299 85.7436 38.779 90.5316C38.3495 91.9489 38.0095 93.3225 37.7769 94.6485C37.7307 94.6146 37.6876 94.5851 37.6398 94.5488C36.6837 93.8175 35.4951 92.6469 34.1297 91.2815C31.399 88.5508 27.9233 85.0336 23.1145 82.6289C19.9176 81.0306 15.5714 75.0298 14.0484 67.4141C12.5252 59.7986 13.5105 50.7449 19.612 42.6092L15.6803 39.6611C12.3024 44.1644 10.2776 48.962 9.27948 53.7061C5.85432 54.3833 3.16483 55.2866 0.304932 58.3109C0.993895 47.3678 4.85979 37.5437 11.2721 29.4501C11.4468 29.7256 11.628 29.9969 11.8155 30.2639C13.7071 32.9435 16.3638 35.0492 20.9162 37.3255L23.1145 32.9296C18.9285 30.8368 17.2161 29.3925 15.8308 27.4299C15.2005 26.5369 14.6238 25.4542 13.9763 24.1339C12.5045 16.2421 11.3013 8.68288 18.99 0.25693C19.0902 0.147154 19.2371 0.0911747 19.4269 0.0829825C21.911 -0.0246084 31.7744 7.98845 41.0136 9.80275C46.3798 8.13291 52.1678 7.01194 58.3079 6.5002L59.5225 10.7514C55.7213 11.2634 51.7828 12.238 47.4532 13.6812L49.0075 18.3437C53.4168 16.874 57.2333 15.9106 60.8657 15.4535L62.0845 19.7189C60.4427 19.86 58.8464 20.0979 57.3617 20.4471C54.8002 21.0498 52.5335 21.8879 50.862 23.5594L54.3371 27.0345C54.8505 26.5214 56.4065 25.721 58.4873 25.2314C59.9583 24.8851 61.677 24.6541 63.4643 24.5471L65.7071 32.3968L67.9498 24.5471C69.7371 24.6541 71.4558 24.8851 72.9268 25.2314C75.0076 25.721 76.5639 26.5214 77.077 27.0345L80.5521 23.5594C78.8809 21.8879 76.6139 21.0498 74.0524 20.4471C72.5677 20.0979 70.9714 19.86 69.3296 19.7186L70.5484 15.4535C74.1808 15.9103 77.9973 16.874 82.4066 18.3437L83.9609 13.6812C79.6313 12.238 75.6928 11.2634 71.8916 10.7514L73.1062 6.5002C79.2463 7.01167 85.0341 8.13318 90.4005 9.80275C99.6397 7.98872 109.503 -0.0246084 111.987 0.0829825ZM86.6406 30.1153C75.7176 34.4845 70.5131 36.4935 65.7071 36.4935C60.901 36.4935 55.6967 34.4845 44.7738 30.1153L42.9486 34.6783C53.8715 39.0475 59.5902 41.4077 65.7071 41.4077C71.8239 41.4077 77.5426 39.0475 88.4655 34.6783L86.6406 30.1153ZM98.4625 31.2977C94.5329 39.1568 86.4538 43.3064 77.7154 47.6755L79.7875 51.8186C78.4719 53.5993 77.3506 55.7225 76.5287 58.2309C76.5287 58.2309 74.4454 67.3502 74.2059 71.3155L79.0541 72.1232C78.8146 67.3502 78.8146 62.981 81.1431 59.8855C82.5557 61.8035 84.8039 63.0627 87.3402 63.0627C91.6233 63.0627 95.0865 59.4718 95.0865 55.181C95.0865 52.6946 93.9221 50.4453 92.1108 48.9915C95.4742 47.9879 98.7552 47.9615 100.66 47.9615V43.0472C99.3723 43.0472 97.1902 43.0385 94.6176 43.4194C97.9261 40.7758 100.81 37.5934 102.858 33.4959L98.4625 31.2977ZM32.9516 31.2977L28.5557 33.4959C30.6046 37.5934 33.488 40.7758 36.7965 43.4194C34.2795 43.0467 32.1363 43.047 30.8384 43.0472C30.8098 43.0472 30.7815 43.0472 30.7537 43.0472V47.9615C32.6589 47.9615 35.9399 47.9879 39.3033 48.9915C37.492 50.4453 36.3277 52.6946 36.3277 55.181C36.3277 59.4715 39.7908 63.0627 44.0739 63.0627C46.6102 63.0627 48.8584 61.8035 50.271 59.8855C52.5995 62.981 52.5995 67.3502 52.3601 72.1235L57.2082 71.3158C56.9687 67.3505 54.8854 58.2312 54.8854 58.2312C54.0635 55.7227 52.9422 53.5999 51.6266 51.8189L53.6987 47.6758C44.9603 43.3066 36.8812 39.1568 32.9516 31.2977ZM107.361 44.7274L102.698 46.2812C103.609 49.0144 103.395 51.3413 102.517 53.7397C101.639 56.1384 100.024 58.548 98.1744 60.9262C96.3248 63.3041 94.259 65.6356 92.5684 68.0613C90.8781 70.4867 89.465 73.0847 89.465 76.0885H94.3792C94.3792 74.7232 95.1509 72.952 96.6006 70.8717C98.0504 68.7917 100.081 66.4807 102.054 63.9439C104.027 61.4065 105.962 58.6277 107.133 55.4284C108.303 52.229 108.634 48.5483 107.361 44.7274ZM24.0533 44.7274C22.7797 48.548 23.1112 52.2288 24.2816 55.4284C25.452 58.6277 27.3864 61.4065 29.3599 63.9436C31.3334 66.481 33.3637 68.7917 34.8135 70.8717C36.2635 72.952 37.0349 74.7232 37.0349 76.0885H41.9491C41.9491 73.0847 40.5363 70.4867 38.8457 68.0613C37.1551 65.6356 35.0893 63.3043 33.2395 60.9259C31.3899 58.548 29.7747 56.1384 28.8971 53.7397C28.0197 51.341 27.8048 49.0144 28.7157 46.2815L24.0533 44.7274ZM88.4655 51.8186C90.0242 51.8186 90.1717 53.4797 90.1717 55.181C90.1717 56.8819 86.8503 58.2309 85.291 58.2309C82.9651 58.8158 82.228 57.5196 83.7299 54.6523C84.7312 52.7408 86.9065 51.8186 88.4655 51.8186ZM122.464 55.4994C132.203 72.0531 131.078 89.3626 126.875 93.5652C124.203 89.3651 121.38 85.9694 118.137 84.8269C120.711 94.6736 118.137 102.304 113.768 106.673C113.768 102.304 112.831 100.205 109.399 97.9344C110.298 108.838 104.42 113.443 100.66 115.411C99.0143 112.23 95.8871 108.739 91.5739 105.719C92.2249 104.978 92.7448 104.132 93.1113 103.216C93.51 102.22 93.7577 101.168 93.8838 100.069C94.9477 99.717 95.8937 99.1154 96.7601 98.4527C98.1252 97.409 99.3942 96.122 100.76 94.7566C103.49 92.0259 106.568 88.9893 110.498 87.0248C116.039 84.254 120.431 77.1472 122.185 68.3786C122.987 64.3707 123.168 59.9789 122.464 55.4994ZM8.95043 55.4994C8.2459 59.9786 8.42722 64.3707 9.22896 68.3786C10.9826 77.1472 15.3747 84.254 20.9162 87.0248C24.8457 88.9896 27.9238 92.0259 30.6546 94.7566C32.0199 96.122 33.2889 97.409 34.654 98.4527C35.5204 99.1154 36.4664 99.717 37.5303 100.069C37.6564 101.168 37.9044 102.22 38.3028 103.216C38.6693 104.132 39.1892 104.978 39.8402 105.719C35.527 108.739 32.3998 112.23 30.7537 115.411C26.994 113.443 21.1161 108.838 22.0153 97.9344C18.5834 100.205 17.6462 102.304 17.6462 106.673C13.277 102.304 10.703 94.6736 13.277 84.8269C10.034 85.9694 7.21123 89.3651 4.53866 93.5652C0.336062 89.3626 -0.788455 72.0531 8.95043 55.4994ZM111.856 62.981H106.942C106.942 66.1214 104.181 70.2076 100.979 73.943C99.3786 75.8105 97.7325 77.5872 96.4043 79.2843C95.0761 80.9815 93.8341 82.506 93.8341 84.8269H98.7484C98.7484 84.9634 99.1449 83.757 100.274 82.3138C101.404 80.8706 103.035 79.0973 104.711 77.1418C108.063 73.2311 111.856 68.5788 111.856 62.981ZM24.4725 62.981H19.5582C19.5582 68.579 23.3512 73.2311 26.7035 77.1418C28.3796 79.0973 30.0104 80.8706 31.1398 82.3138C32.2692 83.757 32.6657 84.9631 32.6657 84.8269H37.58C37.58 82.5058 36.338 80.9815 35.0098 79.2843C33.6816 77.5872 32.0355 75.8105 30.4347 73.943C27.2332 70.2076 24.4725 66.1216 24.4725 62.981ZM79.5581 109.077C80.8752 109.241 82.1087 109.304 83.2654 109.266C83.7572 109.248 84.2478 109.205 84.7353 109.138C84.0456 111.568 82.9251 113.88 81.2487 115.892C78.0366 119.747 72.807 122.237 65.7071 122.237C58.6072 122.237 53.3775 119.747 50.1654 115.892C48.4887 113.88 47.3685 111.568 46.6788 109.138C47.1572 109.203 47.6454 109.249 48.1487 109.265C49.3055 109.304 50.5389 109.241 51.856 109.077C52.3639 110.433 53.0501 111.676 53.9414 112.745C56.1907 115.445 59.6994 117.323 65.7071 117.323C71.7147 117.323 75.2234 115.444 77.4727 112.745C78.364 111.676 79.05 110.432 79.5581 109.077Z" fill="#D59C64"/>
<path d="M56.013 104.899C59.4486 104.831 58.3341 104.899 60.2456 104.761C59.407 108.343 58.3464 108.993 58.6072 111.926C54.381 108.769 56.0774 106.653 56.013 104.899Z" fill="#D59C64"/>
<path d="M60.2456 111.926C60.5283 111.902 60.6236 111.555 61.0648 111.315C61.3037 111.447 61.5742 111.794 61.813 111.926C62.0719 112.749 61.981 112.875 61.813 113.09C61.2011 113.327 60.8575 113.312 60.2456 113.09C59.9813 112.719 60.0499 112.442 60.2456 111.926Z" fill="#D59C64"/>
<path d="M63.8611 112.271C63.5784 112.247 63.4176 111.965 62.9763 111.725C62.7375 111.857 62.5325 112.139 62.2936 112.271C62.0348 113.094 62.1257 112.875 62.2936 113.09C62.9056 113.327 63.2492 113.312 63.8611 113.09C64.1254 112.719 64.0568 112.787 63.8611 112.271Z" fill="#D59C64"/>
<path d="M64.3417 112.407C64.4782 112.271 64.6148 112.271 64.8878 111.926C65.0244 112.134 65.2975 112.271 65.434 112.407C65.5007 112.968 65.5049 112.742 65.434 113.09C64.8122 113.224 64.9458 113.233 64.3417 113.09C64.2512 112.694 64.2504 112.931 64.3417 112.407Z" fill="#D59C64"/>
<path d="M65.7876 112.407C65.9241 112.271 66.0607 112.271 66.3337 111.926C66.4703 112.134 66.7433 112.271 66.8799 112.407C66.9466 112.968 66.9508 112.742 66.8799 113.09C66.2581 113.224 66.3917 113.233 65.7876 113.09C65.697 112.694 65.6963 112.931 65.7876 112.407Z" fill="#D59C64"/>
<path d="M67.3455 112.271C67.6282 112.247 67.789 111.965 68.2303 111.725C68.4691 111.857 68.6741 112.139 68.9129 112.271C69.1718 113.094 69.0809 112.875 68.9129 113.09C68.301 113.327 67.9574 113.312 67.3455 113.09C67.0812 112.719 67.1498 112.787 67.3455 112.271Z" fill="#D59C64"/>
<path d="M69.328 111.926C69.6107 111.902 69.706 111.555 70.1472 111.315C70.3861 111.447 70.6566 111.794 70.8954 111.926C71.1543 112.749 71.0634 112.875 70.8954 113.09C70.2835 113.327 69.9399 113.312 69.328 113.09C69.0637 112.719 69.1323 112.442 69.328 111.926Z" fill="#D59C64"/>
<path d="M74.4454 104.899C71.0098 104.831 73.08 104.899 71.032 104.761C71.8706 108.343 72.7947 108.993 72.5339 111.926C76.76 108.769 74.381 106.653 74.4454 104.899Z" fill="#D59C64"/>
<path d="M42.9486 51.8189C41.3899 51.8189 41.2424 53.48 41.2424 55.1812C41.2424 56.8822 44.5638 58.2312 46.1231 58.2312C48.449 58.8161 49.1861 57.5198 47.6842 54.6526C46.6829 52.7411 44.5076 51.8189 42.9486 51.8189Z" fill="#D59C64"/>
</svg>
